{"glyphs":{"0":{"ha":1154,"x_min":42,"x_max":1113,"o":"m 1113 488 q 956 82 1113 204 q 583 -17 828 -17 q 183 97 313 -17 q 42 499 42 222 q 168 851 42 725 q 579 989 306 989 q 1004 857 881 989 q 1113 488 1113 740 m 865 493 q 797 721 865 636 q 571 815 721 815 q 349 714 424 815 q 286 493 286 629 q 336 261 286 336 q 593 157 406 157 q 815 258 751 157 q 865 493 865 338 z "},"1":{"ha":383,"x_min":64,"x_max":325,"o":"m 325 0 l 64 0 l 64 972 l 325 972 l 325 0 z "},"2":{"ha":1176,"x_min":58,"x_max":1122,"o":"m 1122 667 q 1010 461 1122 531 q 747 400 911 400 l 485 400 q 417 391 443 400 q 365 356 390 382 q 324 258 324 311 l 324 169 l 1093 169 l 1093 0 l 58 0 l 58 243 q 74 386 58 336 q 151 501 94 454 q 263 559 207 547 q 418 571 319 571 l 669 571 q 775 594 733 571 q 825 676 825 622 q 777 765 825 733 q 665 797 729 797 l 74 797 l 74 972 l 810 972 q 1050 881 968 972 q 1122 667 1122 800 z "},"3":{"ha":975,"x_min":60,"x_max":918,"o":"m 914 217 q 815 58 897 115 q 622 0 733 0 l 63 0 l 63 169 l 549 171 q 631 201 596 171 q 671 278 667 231 q 635 367 671 331 q 544 403 599 403 l 163 404 l 158 574 l 532 574 q 629 605 592 574 q 667 693 667 636 q 519 800 667 800 l 60 800 l 60 972 l 625 972 q 842 890 764 972 q 911 706 911 817 q 876 577 911 628 q 774 490 842 526 q 881 396 843 456 q 918 261 918 336 q 914 217 918 240 z "},"4":{"ha":1163,"x_min":61,"x_max":1088,"o":"m 1088 171 l 950 171 l 950 0 l 728 0 l 728 169 l 61 169 l 61 368 l 660 972 l 951 972 l 951 343 l 1088 343 l 1088 171 m 725 336 l 725 768 l 311 336 l 725 336 z "},"5":{"ha":988,"x_min":75,"x_max":933,"o":"m 933 306 q 813 72 933 154 q 547 0 707 0 l 75 0 l 75 181 l 560 181 q 653 218 614 181 q 686 311 692 256 q 653 382 686 353 q 547 415 614 415 l 75 415 l 75 972 l 876 972 l 876 803 l 301 803 l 300 586 l 640 586 q 851 508 769 586 q 933 306 933 431 z "},"6":{"ha":1076,"x_min":53,"x_max":1035,"o":"m 1033 264 q 879 35 1019 107 q 568 -26 761 -26 q 197 69 324 -26 q 53 415 53 179 q 150 788 53 635 q 485 972 267 972 l 972 972 l 975 792 l 579 792 q 464 786 492 792 q 368 733 408 775 q 324 665 340 704 q 307 597 307 626 l 303 557 l 742 557 q 953 481 872 557 q 1035 292 1035 406 q 1033 264 1035 274 m 785 260 q 763 343 789 304 q 676 390 731 390 l 303 390 q 330 259 303 314 q 417 172 357 204 q 589 140 476 140 q 724 165 674 140 q 785 260 785 196 z "},"7":{"ha":1008,"x_min":39,"x_max":976,"o":"m 976 793 l 318 0 l 39 0 l 717 797 l 44 797 l 44 972 l 976 972 l 976 793 z "},"8":{"ha":1083,"x_min":39,"x_max":1029,"o":"m 1029 714 q 983 563 1029 626 q 854 471 938 499 q 976 383 933 443 q 1019 235 1019 322 q 938 63 1019 125 q 731 0 857 0 l 329 0 q 128 64 211 0 q 39 239 39 132 q 84 387 39 325 q 210 476 129 449 q 83 569 126 504 q 39 722 39 633 q 126 901 39 831 q 333 972 214 972 l 715 972 q 940 901 850 972 q 1029 714 1029 831 m 781 672 q 750 761 781 722 q 672 800 719 800 l 401 800 q 318 764 354 800 q 282 683 282 728 q 314 597 282 635 q 392 560 346 560 l 671 560 q 749 593 717 560 q 781 672 781 626 m 781 274 q 744 361 781 325 q 656 397 708 397 l 393 397 q 317 365 349 397 q 286 286 286 332 q 320 199 286 235 q 403 164 354 164 l 656 164 q 744 194 708 164 q 781 274 781 224 z "},"9":{"ha":1086,"x_min":50,"x_max":1033,"o":"m 1033 558 q 936 185 1033 338 q 601 0 819 0 l 108 0 l 111 179 l 506 179 q 538 179 526 179 q 633 188 601 179 q 717 238 679 200 q 762 306 746 267 q 778 375 778 346 l 783 415 l 343 415 q 131 492 211 415 q 50 683 50 568 q 51 710 50 701 q 204 940 65 867 q 514 1003 322 1003 q 878 906 754 1003 q 1033 558 1013 799 m 783 585 q 756 717 783 661 q 671 801 729 772 q 596 825 643 815 q 496 835 549 835 q 361 810 410 835 q 300 714 300 779 q 325 632 300 669 q 410 585 357 585 l 783 585 z "},"×":{"ha":0,"x_min":0,"x_max":0,"o":""}," ":{"ha":546,"x_min":0,"x_max":0,"o":""},"!":{"ha":347,"x_min":81,"x_max":279,"o":"m 279 256 l 83 256 l 83 972 l 279 972 l 279 256 m 279 -7 l 81 -7 l 81 167 l 279 167 l 279 -7 z "},"\"":{"ha":490,"x_min":79,"x_max":439,"o":"m 439 972 l 438 649 l 293 649 l 293 972 l 439 972 m 225 649 l 79 649 l 79 972 l 225 972 l 225 649 z "},"#":{"ha":789,"x_min":51,"x_max":738,"o":"m 738 683 l 721 603 l 565 603 l 515 369 l 671 369 l 653 289 l 499 289 l 439 10 l 358 10 l 417 289 l 288 289 l 228 10 l 147 10 l 207 289 l 51 289 l 69 369 l 224 369 l 274 603 l 118 603 l 135 683 l 290 683 l 350 963 l 431 963 l 371 683 l 501 683 l 560 963 l 642 963 l 582 683 l 738 683 m 485 603 l 354 603 l 306 369 l 435 369 l 485 603 z "},"$":{"ha":1065,"x_min":43,"x_max":1006,"o":"m 1006 283 q 933 71 1006 144 q 728 -3 860 -3 l 576 -3 l 576 -97 l 492 -99 l 492 -3 l 101 -3 l 101 161 l 489 161 l 489 386 l 350 386 q 136 450 217 386 q 43 668 43 524 q 114 878 43 804 q 396 969 201 969 l 482 969 l 483 1067 l 568 1067 l 568 967 l 950 967 l 949 785 l 568 785 l 568 556 l 700 556 q 925 472 839 556 q 1006 283 1006 394 m 489 557 l 489 788 l 419 788 q 333 757 369 788 q 297 679 297 726 q 333 592 297 628 q 419 557 368 557 l 489 557 m 743 275 q 708 353 743 321 q 626 386 672 386 l 576 386 l 576 163 l 631 163 q 709 194 675 163 q 743 275 743 225 z "},"%":{"ha":1338,"x_min":51,"x_max":1281,"o":"m 621 719 q 564 515 621 588 q 344 428 496 428 q 132 500 207 428 q 51 726 51 576 q 134 928 51 853 q 335 1004 217 1004 q 547 929 474 1004 q 621 719 621 854 m 896 994 l 499 -33 l 406 -33 l 813 994 l 896 994 m 1281 247 q 1229 47 1281 110 q 999 -32 1165 -32 q 783 45 864 -32 q 701 242 701 122 q 771 453 701 374 q 994 542 849 542 q 1217 457 1144 542 q 1281 247 1281 382 m 489 715 q 460 849 489 801 q 332 910 421 910 q 222 853 258 910 q 185 719 185 797 q 226 576 185 628 q 344 525 268 525 q 457 585 419 525 q 489 715 489 635 m 1143 256 q 1115 386 1143 340 q 996 444 1079 444 q 869 382 911 444 q 835 253 835 331 q 877 122 835 176 q 994 67 919 67 q 1103 114 1063 67 q 1143 256 1143 161 z "},"&":{"ha":1182,"x_min":54,"x_max":1107,"o":"m 1107 397 l 950 394 q 813 107 933 218 q 438 -19 675 -19 q 142 61 233 -19 q 64 254 64 129 q 95 381 64 328 q 192 475 126 433 q 87 576 119 514 q 54 726 54 639 q 122 899 54 826 q 288 972 189 972 l 715 972 l 715 794 l 414 794 q 332 765 368 794 q 296 694 296 736 q 331 601 296 640 q 417 563 365 563 l 483 563 l 483 396 l 410 396 q 332 367 364 396 q 300 288 300 338 q 356 189 294 222 q 488 156 400 165 q 658 223 575 149 q 740 397 740 297 l 594 396 l 594 568 l 1107 568 l 1107 397 z "},"'":{"ha":304,"x_min":79,"x_max":225,"o":"m 225 649 l 79 649 l 79 972 l 225 972 l 225 649 z "},"(":{"ha":488,"x_min":56,"x_max":429,"o":"m 429 -92 l 257 -92 q 113 171 164 29 q 56 501 56 328 q 114 824 56 665 q 250 1072 164 957 l 426 1072 q 304 795 339 921 q 269 496 269 669 q 304 190 269 317 q 429 -92 339 63 z "},")":{"ha":519,"x_min":76,"x_max":450,"o":"m 450 508 q 394 179 450 335 q 250 -83 344 39 l 76 -83 q 201 199 167 71 q 236 504 236 326 q 203 803 236 681 q 81 1081 169 925 l 256 1081 q 392 832 342 967 q 450 508 450 675 z "},"*":{"ha":374,"x_min":40,"x_max":335,"o":"m 335 865 l 254 831 l 299 768 l 243 726 l 189 793 l 135 729 l 79 771 l 126 833 l 40 865 l 68 931 l 153 903 l 153 981 l 226 981 l 226 897 l 306 928 l 335 865 z "},"+":{"ha":814,"x_min":43,"x_max":771,"o":"m 771 365 l 500 365 l 500 97 l 314 97 l 314 365 l 43 365 l 43 549 l 314 549 l 314 826 l 501 826 l 501 549 l 771 549 l 771 365 z "},",":{"ha":347,"x_min":85,"x_max":272,"o":"m 272 174 l 269 43 q 233 -67 269 -14 q 202 -108 217 -92 q 164 -137 188 -124 l 164 0 l 85 0 l 85 174 l 272 174 z "},"-":{"ha":631,"x_min":63,"x_max":564,"o":"m 564 556 l 563 365 l 63 365 l 63 556 l 564 556 z "},".":{"ha":347,"x_min":74,"x_max":269,"o":"m 269 0 l 74 0 l 74 176 l 269 176 l 269 0 z "},"/":{"ha":813,"x_min":76,"x_max":744,"o":"m 744 994 l 158 -17 l 76 -18 l 664 994 l 744 994 z "},":":{"ha":347,"x_min":78,"x_max":274,"o":"m 274 425 l 78 425 l 78 601 l 274 601 l 274 425 m 274 0 l 78 0 l 78 176 l 274 176 l 274 0 z "},";":{"ha":347,"x_min":81,"x_max":276,"o":"m 276 433 l 81 433 l 81 610 l 276 610 l 276 433 m 268 174 l 265 43 q 233 -67 265 -19 q 202 -108 217 -92 q 164 -137 188 -124 l 164 0 l 85 0 l 85 174 l 268 174 z "},"<":{"ha":790,"x_min":51,"x_max":739,"o":"m 739 -11 l 51 282 l 51 404 l 739 696 l 739 550 l 247 343 l 739 135 l 739 -11 z "},"=":{"ha":814,"x_min":44,"x_max":769,"o":"m 769 499 l 44 499 l 44 681 l 769 681 l 769 499 m 769 236 l 44 236 l 44 419 l 769 419 l 769 236 z "},">":{"ha":790,"x_min":51,"x_max":739,"o":"m 739 282 l 51 -11 l 51 135 l 543 343 l 51 550 l 51 696 l 739 404 l 739 282 z "},"?":{"ha":1065,"x_min":64,"x_max":1021,"o":"m 1021 679 q 924 478 1021 551 q 690 410 833 410 l 469 410 q 404 399 431 410 q 353 361 378 389 q 327 316 335 339 q 319 261 319 293 l 319 236 l 90 236 l 90 289 q 106 401 90 354 q 164 493 122 449 q 279 561 213 544 q 422 572 325 572 l 639 572 q 719 603 688 572 q 751 682 751 633 q 713 775 751 736 q 619 814 674 814 l 64 814 l 64 972 l 740 972 q 940 885 858 972 q 1021 679 1021 799 m 317 0 l 93 0 l 93 160 l 317 160 l 317 0 z "},"@":{"ha":1064,"x_min":76,"x_max":994,"o":"m 986 486 q 915 311 967 383 q 797 213 864 239 q 765 203 785 207 q 732 199 744 199 q 655 224 686 199 q 619 289 624 250 l 619 308 q 593 263 608 283 q 479 204 544 204 q 415 218 447 204 q 307 460 307 267 l 313 507 q 360 654 325 590 q 447 754 396 718 q 502 782 471 772 q 557 792 533 792 q 678 711 646 792 l 689 781 l 757 781 l 708 497 l 692 385 q 688 338 688 356 q 693 301 688 314 q 712 273 697 283 q 746 263 726 263 q 765 267 751 263 q 795 283 779 271 q 836 324 811 296 q 881 398 861 353 q 911 500 900 443 q 917 575 917 535 q 822 820 917 725 q 578 915 726 915 q 515 911 549 915 q 267 769 365 889 q 169 479 169 649 q 169 456 169 467 q 172 431 172 439 q 182 360 172 393 q 211 286 192 328 q 356 111 263 174 q 563 49 450 49 q 717 80 639 49 q 863 172 794 111 q 900 210 883 190 q 935 253 913 224 l 954 185 l 922 146 q 556 -21 765 -21 q 234 102 368 -21 q 79 419 100 225 q 77 449 78 435 q 76 482 76 463 q 140 742 76 628 q 325 926 204 856 q 416 967 371 951 q 503 987 461 982 q 578 992 546 992 q 876 875 758 992 q 994 579 994 758 q 986 486 994 535 m 649 649 q 620 708 644 685 q 561 731 596 731 q 525 722 544 731 q 465 676 489 708 q 417 575 440 644 q 410 548 414 565 q 401 503 406 531 q 394 452 396 476 q 392 394 392 428 q 413 302 392 333 q 474 265 435 271 q 547 291 515 260 q 608 407 578 322 q 620 449 613 417 q 632 501 628 481 l 638 525 l 644 571 q 647 595 646 578 q 649 632 649 613 q 649 649 649 643 z "},"A":{"ha":974,"x_min":-39,"x_max":1015,"o":"m 1015 0 l 772 0 l 690 222 l 289 222 l 201 0 l -39 0 l 360 972 l 597 972 l 1015 0 m 615 392 l 483 733 l 356 392 l 615 392 z "},"B":{"ha":1008,"x_min":69,"x_max":965,"o":"m 965 263 q 888 76 965 153 q 700 0 810 0 l 69 0 l 69 971 l 675 971 q 860 908 782 971 q 950 744 939 846 q 951 728 951 736 q 951 711 951 719 q 914 574 951 633 q 801 482 876 515 q 922 397 878 454 q 965 263 965 340 m 701 665 q 670 751 701 715 q 590 788 639 788 l 283 788 l 283 556 l 603 554 q 674 587 646 554 q 701 665 701 619 m 714 272 q 683 356 714 321 q 606 392 653 392 l 278 392 l 278 165 l 613 165 q 685 197 657 165 q 714 272 714 228 z "},"C":{"ha":907,"x_min":42,"x_max":861,"o":"m 861 0 l 432 0 q 303 18 367 0 q 107 190 179 56 q 42 475 42 313 q 100 753 42 632 q 282 935 164 886 q 469 972 374 972 l 858 972 l 858 786 l 454 786 q 311 679 356 786 q 276 461 276 596 q 321 268 276 347 q 465 175 372 175 l 861 176 l 861 0 z "},"D":{"ha":1025,"x_min":69,"x_max":985,"o":"m 738 940 q 922 758 854 896 q 985 472 985 632 q 915 175 985 301 q 708 10 840 36 q 593 0 657 0 l 69 0 l 69 972 l 564 972 q 738 940 651 972 m 763 468 q 722 689 763 603 q 567 797 671 797 l 296 796 l 296 168 l 585 167 q 725 265 679 167 q 763 468 763 346 z "},"E":{"ha":1001,"x_min":43,"x_max":953,"o":"m 953 0 l 479 0 q 268 50 369 0 q 101 222 158 104 q 43 482 43 340 q 99 736 43 622 q 268 917 160 860 q 383 960 328 947 q 508 972 438 972 l 947 972 l 947 800 l 542 800 q 451 785 488 800 q 378 733 414 771 q 328 660 342 696 q 314 572 314 625 l 953 572 l 953 400 l 317 400 q 329 317 317 353 q 374 244 342 282 q 442 188 407 207 q 526 168 478 168 l 953 168 l 953 0 z "},"F":{"ha":1025,"x_min":69,"x_max":979,"o":"m 979 404 l 308 404 l 308 0 l 69 0 l 69 597 q 90 719 69 653 q 240 900 131 840 q 664 972 371 972 l 979 972 l 979 810 l 650 810 q 464 796 518 810 q 332 694 372 772 q 303 567 303 638 l 979 567 l 979 404 z "},"G":{"ha":1176,"x_min":42,"x_max":1089,"o":"m 1089 0 l 442 0 q 150 150 265 0 q 42 486 42 292 q 161 825 42 685 q 475 972 286 972 l 1078 972 l 1078 793 l 532 793 q 358 699 424 793 q 299 489 299 613 q 354 269 299 361 q 526 165 418 165 l 853 165 l 853 411 l 519 411 l 519 572 l 1089 572 l 1089 0 z "},"H":{"ha":1058,"x_min":69,"x_max":988,"o":"m 988 0 l 744 0 l 744 394 l 303 394 l 303 0 l 69 0 l 69 972 l 303 972 l 303 569 l 747 569 l 747 972 l 988 972 l 988 0 z "},"I":{"ha":400,"x_min":69,"x_max":329,"o":"m 329 0 l 69 0 l 69 972 l 329 972 l 329 0 z "},"J":{"ha":883,"x_min":11,"x_max":813,"o":"m 813 356 q 806 266 813 300 q 779 189 800 232 q 610 36 729 81 q 361 0 514 0 l 11 0 l 11 158 l 322 158 q 432 169 394 158 q 518 229 483 185 q 553 291 543 260 q 563 364 563 322 l 563 972 l 813 972 l 813 356 z "},"K":{"ha":988,"x_min":69,"x_max":976,"o":"m 976 972 l 544 493 l 963 0 l 661 0 l 292 494 l 675 972 l 976 972 m 285 0 l 69 0 l 69 972 l 285 972 l 285 0 z "},"L":{"ha":922,"x_min":69,"x_max":872,"o":"m 872 0 l 521 0 q 274 35 367 0 q 104 188 156 79 q 77 267 85 229 q 69 356 69 306 l 69 972 l 319 972 l 319 364 q 329 291 319 322 q 364 229 339 260 q 444 171 399 185 q 561 157 490 157 l 872 157 l 872 0 z "},"M":{"ha":1363,"x_min":69,"x_max":1290,"o":"m 1290 0 l 1081 0 l 1081 743 l 806 0 l 556 0 l 272 760 l 272 0 l 69 0 l 69 972 l 394 972 l 679 203 l 953 972 l 1290 972 l 1290 0 z "},"N":{"ha":1150,"x_min":69,"x_max":1079,"o":"m 1079 0 l 771 0 l 301 719 l 301 0 l 69 0 l 69 972 l 382 972 l 843 243 l 843 972 l 1079 972 l 1079 0 z "},"O":{"ha":1154,"x_min":42,"x_max":1113,"o":"m 1113 488 q 956 82 1113 204 q 583 -17 828 -17 q 183 97 313 -17 q 42 499 42 222 q 168 851 42 725 q 579 989 306 989 q 1004 857 881 989 q 1113 488 1113 740 m 865 493 q 797 721 865 636 q 571 815 721 815 q 349 714 424 815 q 286 493 286 629 q 336 261 286 336 q 593 157 406 157 q 815 258 751 157 q 865 493 865 338 z "},"P":{"ha":1100,"x_min":69,"x_max":1058,"o":"m 1058 650 q 959 430 1058 521 q 722 339 860 339 l 310 339 l 310 0 l 69 0 l 69 972 l 735 972 q 981 865 890 972 q 1058 650 1058 772 m 788 663 q 736 767 788 725 q 618 808 685 808 l 308 808 l 308 507 l 625 507 q 740 551 693 507 q 788 663 788 596 z "},"Q":{"ha":1138,"x_min":42,"x_max":1167,"o":"m 1167 -4 l 892 -4 l 851 46 q 710 -1 772 14 q 574 -17 647 -17 q 186 104 324 -17 q 42 479 42 232 q 174 860 42 731 q 576 989 306 989 q 976 850 839 989 q 1094 540 1094 731 q 1082 339 1094 403 q 1000 154 1063 242 l 1167 -4 m 854 488 q 799 704 854 621 q 574 811 726 811 q 358 729 429 811 q 286 493 286 647 q 369 239 286 319 q 592 167 444 167 q 790 248 725 167 q 854 488 854 329 z "},"R":{"ha":1067,"x_min":69,"x_max":1089,"o":"m 1089 0 l 815 0 l 564 379 l 303 379 l 303 0 l 69 0 l 69 972 l 781 972 q 981 878 901 972 q 1060 657 1060 785 q 992 485 1060 556 q 819 396 924 414 l 1089 0 m 779 667 q 728 772 779 735 q 592 808 678 808 l 300 808 l 300 536 l 599 536 q 715 565 664 536 q 779 667 779 601 z "},"S":{"ha":1133,"x_min":42,"x_max":1093,"o":"m 1093 301 q 1008 86 1093 174 q 793 -1 924 -1 l 106 0 l 106 175 l 672 175 q 768 201 729 175 q 813 285 813 232 q 638 408 813 408 l 351 408 q 135 485 228 408 q 42 679 42 561 q 133 891 42 810 q 372 972 224 972 l 1029 972 l 1029 806 l 450 806 q 372 773 411 806 q 332 696 332 740 q 370 612 332 646 q 463 578 408 578 l 778 578 q 1009 502 925 578 q 1093 301 1093 426 z "},"T":{"ha":940,"x_min":-6,"x_max":939,"o":"m 939 804 l 576 804 l 576 -3 l 351 -3 l 351 804 l -6 804 l -6 969 l 939 969 l 939 804 z "},"U":{"ha":1113,"x_min":69,"x_max":1040,"o":"m 1040 329 q 888 58 1040 138 q 561 0 774 0 q 229 68 354 0 q 69 339 69 154 l 69 972 l 315 972 l 315 369 q 397 204 315 256 q 546 167 457 167 q 754 226 697 167 q 803 378 803 278 l 803 972 l 1040 972 l 1040 329 z "},"V":{"ha":1083,"x_min":-44,"x_max":1119,"o":"m 1119 972 l 653 -3 l 410 -3 l -44 972 l 221 972 l 536 232 l 854 972 l 1119 972 z "},"W":{"ha":1569,"x_min":-54,"x_max":1624,"o":"m 1624 972 l 1286 -1 l 990 -1 l 775 686 l 567 0 l 281 0 l -54 972 l 211 972 l 428 246 l 642 972 l 918 972 l 1147 236 l 1356 972 l 1624 972 z "},"X":{"ha":1208,"x_min":74,"x_max":1126,"o":"m 1126 0 l 843 0 l 594 325 l 364 -3 l 74 -3 l 453 482 l 82 972 l 374 972 l 596 649 l 833 972 l 1117 972 l 743 486 l 1126 0 z "},"Y":{"ha":976,"x_min":-58,"x_max":1021,"o":"m 1021 972 l 593 410 l 593 -3 l 364 -3 l 364 410 l -58 972 l 224 972 l 476 585 l 733 972 l 1021 972 z "},"Z":{"ha":1131,"x_min":65,"x_max":1058,"o":"m 1058 -3 l 72 -3 l 72 167 l 726 783 l 65 783 l 65 971 l 1056 972 l 1056 774 l 408 164 l 1058 164 l 1058 -3 z "},"[":{"ha":451,"x_min":85,"x_max":418,"o":"m 418 -265 l 85 -265 l 85 978 l 418 978 l 418 847 l 250 847 l 250 -135 l 418 -135 l 418 -265 z "},"\\":{"ha":376,"x_min":-44,"x_max":421,"o":"m 421 -26 l 263 -26 l -44 999 l 114 999 l 421 -26 z "},"]":{"ha":451,"x_min":32,"x_max":365,"o":"m 365 -265 l 32 -265 l 32 -135 l 200 -135 l 200 847 l 32 847 l 32 978 l 365 978 l 365 -265 z "},"^":{"ha":790,"x_min":83,"x_max":707,"o":"m 707 438 l 558 438 l 396 793 l 232 438 l 83 438 l 328 946 l 463 946 l 707 438 z "},"_":{"ha":753,"x_min":-4,"x_max":749,"o":"m 749 -278 l -4 -278 l -4 -210 l 749 -210 l 749 -278 z "},"`":{"ha":496,"x_min":-33,"x_max":335,"o":"m 335 767 l 185 767 l -33 969 l 196 969 l 335 767 z "},"a":{"ha":842,"x_min":42,"x_max":772,"o":"m 772 -1 l 253 -1 q 103 58 165 -1 q 42 207 42 117 q 98 363 42 301 q 239 425 154 425 l 575 425 l 575 464 q 569 495 575 482 q 549 526 563 508 q 508 555 529 549 q 450 561 488 561 l 90 561 l 90 719 l 399 719 l 458 719 q 610 702 560 719 q 696 650 660 685 q 757 550 742 604 q 772 411 772 496 l 772 -1 m 574 146 l 574 288 l 329 288 q 270 267 294 288 q 246 214 246 247 q 269 165 246 185 q 324 146 293 146 l 574 146 z "},"b":{"ha":858,"x_min":69,"x_max":817,"o":"m 817 367 q 739 115 817 221 q 521 0 654 0 l 69 0 l 69 972 l 264 972 l 264 719 l 524 719 q 738 610 653 719 q 817 367 817 507 m 614 360 q 565 505 614 442 q 442 568 517 568 l 264 568 l 264 156 l 451 156 q 569 217 524 156 q 614 360 614 279 z "},"c":{"ha":756,"x_min":42,"x_max":706,"o":"m 706 0 l 403 0 q 138 98 235 0 q 42 356 42 196 q 133 611 42 510 q 404 719 232 719 l 706 719 l 706 553 l 432 553 q 301 492 356 553 q 247 351 247 431 q 299 213 247 271 q 426 154 350 154 l 706 154 l 706 0 z "},"d":{"ha":858,"x_min":42,"x_max":789,"o":"m 789 0 l 338 0 q 121 117 207 0 q 42 371 42 225 q 131 615 42 511 q 353 719 219 719 l 601 719 l 601 972 l 789 972 l 789 0 m 596 157 l 596 567 l 417 567 q 293 507 342 567 q 244 365 244 447 q 289 220 244 283 q 408 157 333 157 l 596 157 z "},"e":{"ha":753,"x_min":42,"x_max":686,"o":"m 686 -4 l 347 -4 q 133 102 224 -4 q 42 347 42 208 q 141 609 42 499 q 363 719 240 719 l 685 719 l 685 571 l 449 571 q 373 563 404 571 q 315 533 342 556 q 267 421 267 492 l 683 421 l 683 271 l 268 271 q 276 215 268 238 q 307 169 283 192 q 363 138 331 146 q 443 131 396 131 l 686 131 l 686 -4 z "},"f":{"ha":608,"x_min":43,"x_max":582,"o":"m 582 824 l 496 824 q 438 820 464 824 q 401 801 411 817 q 388 772 392 786 q 385 738 385 758 l 385 700 l 579 700 l 579 556 l 385 556 l 385 0 l 181 0 l 181 553 l 43 553 l 43 701 l 182 701 l 182 788 q 229 913 182 860 q 292 959 258 946 q 376 972 326 972 l 582 972 l 582 824 z "},"g":{"ha":872,"x_min":42,"x_max":803,"o":"m 803 24 q 790 -96 803 -50 q 736 -187 778 -142 q 647 -248 694 -232 q 529 -264 600 -264 l 115 -264 l 115 -111 l 464 -111 q 490 -111 482 -111 q 528 -108 514 -111 q 558 -92 542 -104 q 583 -67 569 -85 q 597 -36 597 -49 l 597 -3 l 346 -3 q 125 111 214 -3 q 42 361 42 218 q 133 613 42 507 q 363 719 224 719 l 803 719 l 803 24 m 600 154 l 599 556 l 428 556 q 310 495 351 556 q 268 342 268 435 q 306 219 268 271 q 447 154 354 154 l 600 154 z "},"h":{"ha":817,"x_min":69,"x_max":746,"o":"m 746 474 l 744 0 l 549 0 l 549 435 q 547 481 549 454 q 525 528 546 507 q 483 555 504 549 q 429 561 461 561 l 264 564 l 264 0 l 69 0 l 69 972 l 264 972 l 264 719 l 504 719 q 600 709 564 719 q 676 663 636 699 q 731 583 715 628 q 746 474 746 539 z "},"i":{"ha":333,"x_min":69,"x_max":264,"o":"m 261 801 l 69 801 l 69 972 l 261 972 l 261 801 m 264 0 l 69 0 l 69 719 l 264 719 l 264 0 z "},"j":{"ha":333,"x_min":-99,"x_max":264,"o":"m 261 808 l 72 808 l 72 971 l 261 971 l 261 808 m 264 -18 q 171 -207 264 -129 q 107 -249 136 -236 q 36 -261 78 -261 l -99 -261 l -99 -112 l -19 -112 q 42 -86 15 -112 q 65 -52 60 -71 q 69 0 69 -33 l 69 719 l 264 719 l 264 -18 z "},"k":{"ha":825,"x_min":69,"x_max":846,"o":"m 264 0 l 69 0 l 69 972 l 264 972 l 264 0 m 846 0 l 572 0 l 274 350 l 574 722 l 844 722 l 519 357 l 846 0 z "},"l":{"ha":333,"x_min":69,"x_max":264,"o":"m 264 0 l 69 0 l 69 972 l 264 972 l 264 0 z "},"m":{"ha":1175,"x_min":69,"x_max":1103,"o":"m 1103 -1 l 915 -1 l 915 450 q 910 492 915 476 q 888 524 904 507 q 854 549 871 542 q 815 557 838 557 l 678 557 l 678 -1 l 488 -1 l 488 561 l 264 561 l 264 0 l 69 0 l 69 719 l 840 719 q 954 706 913 719 q 1036 650 996 693 q 1085 582 1068 615 q 1103 510 1103 549 l 1103 -1 z "},"n":{"ha":813,"x_min":69,"x_max":740,"o":"m 740 0 l 547 0 l 547 474 q 539 506 547 492 q 515 535 531 521 q 451 558 488 558 l 263 558 l 263 0 l 69 0 l 69 719 l 439 719 q 582 708 538 719 q 693 635 651 692 q 740 489 740 568 l 740 0 z "},"o":{"ha":915,"x_min":42,"x_max":874,"o":"m 874 363 q 754 75 874 175 q 456 -17 644 -17 q 163 67 267 -17 q 42 365 42 163 q 172 632 42 535 q 460 719 289 719 q 760 626 647 719 q 874 363 874 532 m 658 364 q 603 510 658 451 q 454 569 549 569 q 312 509 368 569 q 256 357 256 449 q 313 189 256 251 q 460 126 369 126 q 613 192 563 126 q 658 364 658 251 z "},"p":{"ha":840,"x_min":69,"x_max":799,"o":"m 799 376 q 709 102 799 204 q 474 0 619 0 l 264 0 l 264 -262 l 69 -262 l 69 719 l 456 719 q 711 622 619 719 q 799 376 799 529 m 601 365 q 544 513 601 456 q 400 571 486 571 l 264 571 l 264 151 l 414 151 q 549 210 497 151 q 601 365 601 269 z "},"q":{"ha":840,"x_min":42,"x_max":771,"o":"m 771 -257 l 583 -257 l 583 0 l 367 0 q 131 105 221 0 q 42 383 42 210 q 128 624 42 533 q 385 719 219 719 l 771 719 l 771 -257 m 582 158 l 582 571 l 442 571 q 297 517 356 571 q 239 371 239 463 q 292 217 239 275 q 428 158 344 158 l 582 158 z "},"r":{"ha":508,"x_min":69,"x_max":476,"o":"m 476 564 l 261 564 l 261 0 l 69 0 l 69 719 l 263 719 l 263 619 q 300 681 278 657 q 358 717 322 704 q 394 726 375 722 q 432 731 413 731 q 476 725 456 731 l 476 564 z "},"s":{"ha":781,"x_min":39,"x_max":739,"o":"m 739 219 q 680 63 739 128 q 531 -3 621 -3 l 54 -3 l 54 128 l 446 128 q 516 149 488 128 q 544 208 544 169 q 422 299 544 299 l 222 299 q 99 360 158 299 q 39 492 39 421 q 83 653 39 592 q 235 722 135 722 l 693 722 l 693 586 l 285 586 q 244 563 261 586 q 226 511 226 540 q 249 456 226 479 q 304 433 272 433 l 519 433 q 680 373 621 433 q 739 219 739 313 z "},"t":{"ha":529,"x_min":-3,"x_max":497,"o":"m 497 569 l 310 569 l 310 243 q 340 169 310 199 q 432 140 375 140 l 489 140 l 489 0 l 310 0 q 172 58 229 0 q 129 135 139 93 q 119 233 119 176 l 119 569 l -3 569 l -3 719 l 119 719 l 119 972 l 310 972 l 310 719 l 497 719 l 497 569 z "},"u":{"ha":810,"x_min":69,"x_max":740,"o":"m 740 0 l 371 0 q 228 10 269 0 q 117 82 158 26 q 69 228 69 146 l 69 719 l 263 719 l 263 243 q 293 183 263 208 q 358 158 324 158 l 547 158 l 547 719 l 740 719 l 740 0 z "},"v":{"ha":764,"x_min":-46,"x_max":800,"o":"m 800 719 l 489 0 l 250 0 l -46 719 l 183 719 l 375 217 l 574 719 l 800 719 z "},"w":{"ha":1165,"x_min":-49,"x_max":1204,"o":"m 1204 719 l 967 -1 l 719 -1 l 583 476 l 442 0 l 197 0 l -49 719 l 175 719 l 322 226 l 469 719 l 697 719 l 838 208 l 981 719 l 1204 719 z "},"x":{"ha":754,"x_min":-12,"x_max":775,"o":"m 775 719 l 499 356 l 767 -3 l 518 -3 l 379 189 l 233 0 l -10 0 l 263 351 l -12 719 l 231 719 l 381 513 l 528 719 l 775 719 z "},"y":{"ha":832,"x_min":69,"x_max":758,"o":"m 758 719 l 757 -31 q 738 -116 757 -78 q 686 -183 718 -154 q 586 -240 638 -225 q 463 -256 535 -256 l 85 -256 l 85 -106 l 478 -106 q 528 -87 504 -106 q 560 -29 560 -62 l 560 -1 l 338 -1 q 229 13 274 -1 q 143 69 185 28 q 69 249 69 142 l 69 719 l 272 719 l 271 258 q 274 217 271 231 q 294 186 278 203 q 331 163 310 169 q 382 157 351 157 l 558 157 l 558 719 l 758 719 z "},"z":{"ha":825,"x_min":63,"x_max":761,"o":"m 761 564 l 351 151 l 754 151 l 754 0 l 63 0 l 63 149 l 474 567 l 63 567 l 63 719 l 761 719 l 761 564 z "},"{":{"ha":526,"x_min":65,"x_max":494,"o":"m 494 -265 l 382 -265 q 256 -221 310 -265 q 192 -81 192 -168 l 192 190 q 143 274 192 246 q 65 294 107 294 l 65 418 q 142 438 107 418 q 192 521 192 465 l 192 792 q 254 932 192 881 q 382 978 310 978 l 494 978 l 494 858 l 433 858 q 369 829 388 858 q 357 769 357 808 l 357 504 q 292 389 349 429 q 203 357 253 361 q 314 307 269 353 q 357 208 350 269 l 357 -57 q 368 -117 357 -99 q 433 -146 386 -146 l 494 -146 l 494 -265 z "},"|":{"ha":379,"x_min":114,"x_max":265,"o":"m 265 -26 l 114 -26 l 114 999 l 265 999 l 265 -26 z "},"}":{"ha":526,"x_min":32,"x_max":461,"o":"m 461 294 q 385 275 419 294 q 335 190 335 247 l 335 -81 q 272 -219 335 -168 q 144 -265 217 -265 l 32 -265 l 32 -146 l 93 -146 q 157 -117 139 -146 q 169 -57 169 -96 l 169 208 q 235 324 179 285 q 324 354 279 354 q 236 388 271 363 q 169 504 179 428 l 169 769 q 158 829 169 811 q 93 858 140 858 l 32 858 l 32 978 l 144 978 q 272 933 218 978 q 335 792 335 882 l 335 521 q 383 439 335 467 q 461 418 419 418 l 461 294 z "},"~":{"ha":790,"x_min":82,"x_max":708,"o":"m 708 343 q 640 264 669 288 q 539 226 594 226 q 473 237 504 226 q 401 270 442 247 q 331 304 361 293 q 244 319 288 319 q 175 289 204 319 q 132 221 151 264 l 82 343 q 143 422 110 394 q 251 460 189 460 q 325 447 285 460 q 403 415 351 439 q 458 390 440 397 q 540 365 515 365 q 621 411 582 365 q 660 464 636 431 l 708 343 z "},"Ä":{"ha":974,"x_min":-39,"x_max":1015,"o":"m 1015 0 l 772 0 l 690 222 l 289 222 l 201 0 l -39 0 l 360 972 l 597 972 l 1015 0 m 615 392 l 483 733 l 356 392 l 615 392 m 713 1022 l 525 1022 l 525 1182 l 713 1182 l 713 1022 m 422 1022 l 235 1022 l 235 1182 l 422 1182 l 422 1022 z "},"Å":{"ha":974,"x_min":-39,"x_max":1015,"o":"m 1015 0 l 772 0 l 690 222 l 289 222 l 201 0 l -39 0 l 354 957 q 319 1046 319 996 q 369 1150 319 1108 q 479 1192 419 1192 q 590 1151 540 1192 q 640 1046 640 1110 q 604 956 640 994 l 1015 0 m 557 1046 q 534 1097 557 1075 q 479 1118 511 1118 q 424 1097 446 1118 q 401 1046 401 1076 q 424 994 401 1015 q 479 972 447 972 q 535 993 513 972 q 557 1046 557 1014 m 615 392 l 483 733 l 356 392 l 615 392 z "},"Ç":{"ha":907,"x_min":42,"x_max":861,"o":"m 861 0 l 504 0 l 478 -36 q 503 -33 489 -36 q 522 -29 518 -29 q 603 -53 565 -29 q 653 -143 653 -85 q 601 -239 653 -201 q 468 -276 550 -276 q 392 -269 426 -276 q 297 -242 358 -262 l 329 -175 q 394 -191 365 -185 q 443 -197 422 -197 q 492 -183 469 -197 q 514 -143 514 -168 q 497 -106 514 -118 q 456 -93 481 -93 q 396 -103 431 -93 l 365 -75 l 417 0 q 303 18 367 0 q 107 190 179 56 q 42 475 42 313 q 100 753 42 632 q 282 935 164 886 q 469 972 374 972 l 858 972 l 858 786 l 454 786 q 311 679 356 786 q 276 461 276 596 q 321 268 276 347 q 465 175 372 175 l 861 176 l 861 0 z "},"É":{"ha":1001,"x_min":43,"x_max":953,"o":"m 953 0 l 479 0 q 268 50 369 0 q 101 222 158 104 q 43 482 43 340 q 99 736 43 622 q 268 917 160 860 q 383 960 328 947 q 508 972 438 972 l 947 972 l 947 800 l 542 800 q 451 785 488 800 q 378 733 414 771 q 328 660 342 696 q 314 572 314 625 l 953 572 l 953 400 l 317 400 q 329 317 317 353 q 374 244 342 282 q 442 188 407 207 q 526 168 478 168 l 953 168 l 953 0 m 772 1215 l 553 1013 l 401 1013 l 543 1215 l 772 1215 z "},"Ñ":{"ha":1150,"x_min":69,"x_max":1079,"o":"m 1079 0 l 771 0 l 301 719 l 301 0 l 69 0 l 69 972 l 382 972 l 843 243 l 843 972 l 1079 972 l 1079 0 m 856 1203 q 799 1056 842 1107 q 693 1004 756 1004 q 592 1024 650 1004 q 475 1067 533 1044 q 431 1049 450 1067 q 406 1001 411 1031 l 308 1001 q 322 1060 315 1031 q 353 1131 335 1103 q 408 1183 376 1164 q 489 1203 440 1203 q 587 1172 510 1203 q 689 1140 664 1140 q 740 1161 721 1140 q 760 1203 753 1175 l 856 1203 z "},"Ö":{"ha":1154,"x_min":42,"x_max":1113,"o":"m 1113 488 q 956 82 1113 204 q 583 -17 828 -17 q 183 97 313 -17 q 42 499 42 222 q 168 851 42 725 q 579 989 306 989 q 1004 857 881 989 q 1113 488 1113 740 m 865 493 q 797 721 865 636 q 571 815 721 815 q 349 714 424 815 q 286 493 286 629 q 336 261 286 336 q 593 157 406 157 q 815 258 751 157 q 865 493 865 338 m 813 1022 l 625 1022 l 625 1182 l 813 1182 l 813 1022 m 522 1022 l 335 1022 l 335 1182 l 522 1182 l 522 1022 z "},"Ü":{"ha":1113,"x_min":69,"x_max":1040,"o":"m 1040 329 q 888 58 1040 138 q 561 0 774 0 q 229 68 354 0 q 69 339 69 154 l 69 972 l 315 972 l 315 369 q 397 204 315 256 q 546 167 457 167 q 754 226 697 167 q 803 378 803 278 l 803 972 l 1040 972 l 1040 329 m 804 1022 l 617 1022 l 617 1182 l 804 1182 l 804 1022 m 514 1022 l 326 1022 l 326 1182 l 514 1182 l 514 1022 z "},"á":{"ha":842,"x_min":42,"x_max":772,"o":"m 772 -1 l 253 -1 q 103 58 165 -1 q 42 207 42 117 q 98 363 42 301 q 239 425 154 425 l 575 425 l 575 464 q 569 495 575 482 q 549 526 563 508 q 508 555 529 549 q 450 561 488 561 l 90 561 l 90 719 l 399 719 l 458 719 q 610 702 560 719 q 696 650 660 685 q 757 550 742 604 q 772 411 772 496 l 772 -1 m 574 146 l 574 288 l 329 288 q 270 267 294 288 q 246 214 246 247 q 269 165 246 185 q 324 146 293 146 l 574 146 m 610 969 l 390 767 l 239 767 l 381 969 l 610 969 z "},"à":{"ha":842,"x_min":42,"x_max":772,"o":"m 772 -1 l 253 -1 q 103 58 165 -1 q 42 207 42 117 q 98 363 42 301 q 239 425 154 425 l 575 425 l 575 464 q 569 495 575 482 q 549 526 563 508 q 508 555 529 549 q 450 561 488 561 l 90 561 l 90 719 l 399 719 l 458 719 q 610 702 560 719 q 696 650 660 685 q 757 550 742 604 q 772 411 772 496 l 772 -1 m 574 146 l 574 288 l 329 288 q 270 267 294 288 q 246 214 246 247 q 269 165 246 185 q 324 146 293 146 l 574 146 m 568 767 l 418 767 l 200 969 l 429 969 l 568 767 z "},"â":{"ha":842,"x_min":42,"x_max":772,"o":"m 772 -1 l 253 -1 q 103 58 165 -1 q 42 207 42 117 q 98 363 42 301 q 239 425 154 425 l 575 425 l 575 464 q 569 495 575 482 q 549 526 563 508 q 508 555 529 549 q 450 561 488 561 l 90 561 l 90 719 l 399 719 l 458 719 q 610 702 560 719 q 696 650 660 685 q 757 550 742 604 q 772 411 772 496 l 772 -1 m 574 146 l 574 288 l 329 288 q 270 267 294 288 q 246 214 246 247 q 269 165 246 185 q 324 146 293 146 l 574 146 m 669 767 l 501 767 l 407 881 l 313 767 l 144 767 l 314 969 l 500 969 l 669 767 z "},"ä":{"ha":842,"x_min":42,"x_max":772,"o":"m 772 -1 l 253 -1 q 103 58 165 -1 q 42 207 42 117 q 98 363 42 301 q 239 425 154 425 l 575 425 l 575 464 q 569 495 575 482 q 549 526 563 508 q 508 555 529 549 q 450 561 488 561 l 90 561 l 90 719 l 399 719 l 458 719 q 610 702 560 719 q 696 650 660 685 q 757 550 742 604 q 772 411 772 496 l 772 -1 m 574 146 l 574 288 l 329 288 q 270 267 294 288 q 246 214 246 247 q 269 165 246 185 q 324 146 293 146 l 574 146 m 650 781 l 463 781 l 463 940 l 650 940 l 650 781 m 360 781 l 172 781 l 172 940 l 360 940 l 360 781 z "},"ã":{"ha":842,"x_min":42,"x_max":772,"o":"m 772 -1 l 253 -1 q 103 58 165 -1 q 42 207 42 117 q 98 363 42 301 q 239 425 154 425 l 575 425 l 575 464 q 569 495 575 482 q 549 526 563 508 q 508 555 529 549 q 450 561 488 561 l 90 561 l 90 719 l 399 719 l 458 719 q 610 702 560 719 q 696 650 660 685 q 757 550 742 604 q 772 411 772 496 l 772 -1 m 574 146 l 574 288 l 329 288 q 270 267 294 288 q 246 214 246 247 q 269 165 246 185 q 324 146 293 146 l 574 146 m 676 982 q 619 835 663 886 q 514 783 576 783 q 413 803 471 783 q 296 846 354 824 q 251 828 271 846 q 226 781 232 810 l 129 781 q 143 839 136 810 q 174 910 156 882 q 229 963 197 943 q 310 982 261 982 q 408 951 331 982 q 510 919 485 919 q 561 940 542 919 q 581 982 574 954 l 676 982 z "},"å":{"ha":842,"x_min":42,"x_max":772,"o":"m 772 -1 l 253 -1 q 103 58 165 -1 q 42 207 42 117 q 98 363 42 301 q 239 425 154 425 l 575 425 l 575 464 q 569 495 575 482 q 549 526 563 508 q 508 555 529 549 q 450 561 488 561 l 90 561 l 90 719 l 314 719 q 274 766 289 739 q 260 826 260 793 q 310 931 260 889 q 419 972 360 972 q 531 931 481 972 q 581 826 581 890 q 566 765 581 792 q 524 717 551 739 q 617 701 574 717 q 696 650 661 685 q 757 550 742 604 q 772 411 772 496 l 772 -1 m 497 826 q 474 877 497 856 q 419 899 451 899 q 364 878 386 899 q 342 826 342 857 q 365 774 342 796 q 419 753 388 753 q 475 774 453 753 q 497 826 497 794 m 574 146 l 574 288 l 329 288 q 270 267 294 288 q 246 214 246 247 q 269 165 246 185 q 324 146 293 146 l 574 146 z "},"ç":{"ha":756,"x_min":42,"x_max":706,"o":"m 706 0 l 454 0 l 428 -36 q 453 -33 439 -36 q 472 -29 468 -29 q 553 -50 518 -29 q 603 -139 603 -79 q 550 -237 603 -199 q 418 -276 497 -276 q 342 -269 376 -276 q 247 -242 308 -262 l 279 -175 q 344 -191 315 -185 q 393 -197 372 -197 q 442 -183 419 -197 q 464 -143 464 -168 q 447 -106 464 -118 q 406 -93 431 -93 q 346 -103 381 -93 l 315 -75 l 368 1 q 129 101 217 1 q 42 356 42 200 q 133 611 42 510 q 404 719 232 719 l 706 719 l 706 553 l 432 553 q 301 492 356 553 q 247 351 247 431 q 299 213 247 271 q 426 154 350 154 l 706 154 l 706 0 z "},"é":{"ha":753,"x_min":42,"x_max":686,"o":"m 686 -4 l 347 -4 q 133 102 224 -4 q 42 347 42 208 q 141 609 42 499 q 363 719 240 719 l 685 719 l 685 571 l 449 571 q 373 563 404 571 q 315 533 342 556 q 267 421 267 492 l 683 421 l 683 271 l 268 271 q 276 215 268 238 q 307 169 283 192 q 363 138 331 146 q 443 131 396 131 l 686 131 l 686 -4 m 618 969 l 399 767 l 247 767 l 389 969 l 618 969 z "},"è":{"ha":753,"x_min":42,"x_max":686,"o":"m 686 -4 l 347 -4 q 133 102 224 -4 q 42 347 42 208 q 141 609 42 499 q 363 719 240 719 l 685 719 l 685 571 l 449 571 q 373 563 404 571 q 315 533 342 556 q 267 421 267 492 l 683 421 l 683 271 l 268 271 q 276 215 268 238 q 307 169 283 192 q 363 138 331 146 q 443 131 396 131 l 686 131 l 686 -4 m 601 767 l 451 767 l 233 969 l 463 969 l 601 767 z "},"ê":{"ha":753,"x_min":42,"x_max":686,"o":"m 686 -4 l 347 -4 q 133 102 224 -4 q 42 347 42 208 q 141 609 42 499 q 363 719 240 719 l 685 719 l 685 571 l 449 571 q 373 563 404 571 q 315 533 342 556 q 267 421 267 492 l 683 421 l 683 271 l 268 271 q 276 215 268 238 q 307 169 283 192 q 363 138 331 146 q 443 131 396 131 l 686 131 l 686 -4 m 669 767 l 501 767 l 407 881 l 313 767 l 144 767 l 314 969 l 500 969 l 669 767 z "},"ë":{"ha":753,"x_min":42,"x_max":686,"o":"m 686 -4 l 347 -4 q 133 102 224 -4 q 42 347 42 208 q 141 609 42 499 q 363 719 240 719 l 685 719 l 685 571 l 449 571 q 373 563 404 571 q 315 533 342 556 q 267 421 267 492 l 683 421 l 683 271 l 268 271 q 276 215 268 238 q 307 169 283 192 q 363 138 331 146 q 443 131 396 131 l 686 131 l 686 -4 m 658 781 l 471 781 l 471 940 l 658 940 l 658 781 m 368 781 l 181 781 l 181 940 l 368 940 l 368 781 z "},"í":{"ha":333,"x_min":-19,"x_max":351,"o":"m 264 0 l 69 0 l 69 719 l 264 719 l 264 0 m 351 969 l 132 767 l -19 767 l 122 969 l 351 969 z "},"ì":{"ha":333,"x_min":-21,"x_max":347,"o":"m 264 0 l 69 0 l 69 719 l 264 719 l 264 0 m 347 767 l 197 767 l -21 969 l 208 969 l 347 767 z "},"î":{"ha":333,"x_min":-93,"x_max":432,"o":"m 264 0 l 69 0 l 69 719 l 264 719 l 264 0 m 432 767 l 264 767 l 169 881 l 75 767 l -93 767 l 76 969 l 263 969 l 432 767 z "},"ï":{"ha":333,"x_min":-65,"x_max":413,"o":"m 264 0 l 69 0 l 69 719 l 264 719 l 264 0 m 413 781 l 225 781 l 225 940 l 413 940 l 413 781 m 122 781 l -65 781 l -65 940 l 122 940 l 122 781 z "},"ñ":{"ha":813,"x_min":69,"x_max":740,"o":"m 740 0 l 547 0 l 547 474 q 539 506 547 492 q 515 535 531 521 q 451 558 488 558 l 263 558 l 263 0 l 69 0 l 69 719 l 439 719 q 582 708 538 719 q 693 635 651 692 q 740 489 740 568 l 740 0 m 639 982 q 582 835 625 886 q 476 783 539 783 q 375 803 433 783 q 258 846 317 824 q 214 828 233 846 q 189 781 194 810 l 92 781 q 106 839 99 810 q 136 910 118 882 q 192 963 160 943 q 272 982 224 982 q 370 951 293 982 q 472 919 447 919 q 524 940 504 919 q 543 982 536 954 l 639 982 z "},"ó":{"ha":915,"x_min":42,"x_max":874,"o":"m 874 363 q 754 75 874 175 q 456 -17 644 -17 q 163 67 267 -17 q 42 365 42 163 q 172 632 42 535 q 460 719 289 719 q 760 626 647 719 q 874 363 874 532 m 658 364 q 603 510 658 451 q 454 569 549 569 q 312 509 368 569 q 256 357 256 449 q 313 189 256 251 q 460 126 369 126 q 613 192 563 126 q 658 364 658 251 m 639 969 l 419 767 l 268 767 l 410 969 l 639 969 z "},"ò":{"ha":915,"x_min":42,"x_max":874,"o":"m 874 363 q 754 75 874 175 q 456 -17 644 -17 q 163 67 267 -17 q 42 365 42 163 q 172 632 42 535 q 460 719 289 719 q 760 626 647 719 q 874 363 874 532 m 658 364 q 603 510 658 451 q 454 569 549 569 q 312 509 368 569 q 256 357 256 449 q 313 189 256 251 q 460 126 369 126 q 613 192 563 126 q 658 364 658 251 m 635 767 l 485 767 l 267 969 l 496 969 l 635 767 z "},"ô":{"ha":915,"x_min":42,"x_max":874,"o":"m 874 363 q 754 75 874 175 q 456 -17 644 -17 q 163 67 267 -17 q 42 365 42 163 q 172 632 42 535 q 460 719 289 719 q 760 626 647 719 q 874 363 874 532 m 658 364 q 603 510 658 451 q 454 569 549 569 q 312 509 368 569 q 256 357 256 449 q 313 189 256 251 q 460 126 369 126 q 613 192 563 126 q 658 364 658 251 m 715 767 l 547 767 l 453 881 l 358 767 l 190 767 l 360 969 l 546 969 l 715 767 z "},"ö":{"ha":915,"x_min":42,"x_max":874,"o":"m 874 363 q 754 75 874 175 q 456 -17 644 -17 q 163 67 267 -17 q 42 365 42 163 q 172 632 42 535 q 460 719 289 719 q 760 626 647 719 q 874 363 874 532 m 658 364 q 603 510 658 451 q 454 569 549 569 q 312 509 368 569 q 256 357 256 449 q 313 189 256 251 q 460 126 369 126 q 613 192 563 126 q 658 364 658 251 m 696 781 l 508 781 l 508 940 l 696 940 l 696 781 m 406 781 l 218 781 l 218 940 l 406 940 l 406 781 z "},"õ":{"ha":915,"x_min":42,"x_max":874,"o":"m 874 363 q 754 75 874 175 q 456 -17 644 -17 q 163 67 267 -17 q 42 365 42 163 q 172 632 42 535 q 460 719 289 719 q 760 626 647 719 q 874 363 874 532 m 658 364 q 603 510 658 451 q 454 569 549 569 q 312 509 368 569 q 256 357 256 449 q 313 189 256 251 q 460 126 369 126 q 613 192 563 126 q 658 364 658 251 m 722 982 q 665 835 708 886 q 560 783 622 783 q 458 803 517 783 q 342 846 400 824 q 297 828 317 846 q 272 781 278 810 l 175 781 q 189 839 182 810 q 219 910 201 882 q 275 963 243 943 q 356 982 307 982 q 453 951 376 982 q 556 919 531 919 q 607 940 588 919 q 626 982 619 954 l 722 982 z "},"ú":{"ha":810,"x_min":69,"x_max":740,"o":"m 740 0 l 371 0 q 228 10 269 0 q 117 82 158 26 q 69 228 69 146 l 69 719 l 263 719 l 263 243 q 293 183 263 208 q 358 158 324 158 l 547 158 l 547 719 l 740 719 l 740 0 m 614 969 l 394 767 l 243 767 l 385 969 l 614 969 z "},"ù":{"ha":810,"x_min":69,"x_max":740,"o":"m 740 0 l 371 0 q 228 10 269 0 q 117 82 158 26 q 69 228 69 146 l 69 719 l 263 719 l 263 243 q 293 183 263 208 q 358 158 324 158 l 547 158 l 547 719 l 740 719 l 740 0 m 564 767 l 414 767 l 196 969 l 425 969 l 564 767 z "},"û":{"ha":810,"x_min":69,"x_max":740,"o":"m 740 0 l 371 0 q 228 10 269 0 q 117 82 158 26 q 69 228 69 146 l 69 719 l 263 719 l 263 243 q 293 183 263 208 q 358 158 324 158 l 547 158 l 547 719 l 740 719 l 740 0 m 669 767 l 501 767 l 407 881 l 313 767 l 144 767 l 314 969 l 500 969 l 669 767 z "},"ü":{"ha":810,"x_min":69,"x_max":740,"o":"m 740 0 l 371 0 q 228 10 269 0 q 117 82 158 26 q 69 228 69 146 l 69 719 l 263 719 l 263 243 q 293 183 263 208 q 358 158 324 158 l 547 158 l 547 719 l 740 719 l 740 0 m 658 781 l 471 781 l 471 940 l 658 940 l 658 781 m 368 781 l 181 781 l 181 940 l 368 940 l 368 781 z "},"°":{"ha":578,"x_min":71,"x_max":507,"o":"m 507 772 q 443 619 507 683 q 289 556 379 556 q 136 619 201 556 q 71 772 71 683 q 131 924 71 860 q 278 989 192 989 l 288 989 q 443 926 379 989 q 507 772 507 864 m 447 772 q 400 885 447 839 q 286 931 353 931 l 278 931 q 174 884 215 931 q 132 772 132 838 q 178 660 132 706 q 289 614 224 614 q 401 660 354 614 q 447 772 447 707 z "},"¢":{"ha":774,"x_min":46,"x_max":708,"o":"m 708 6 l 528 6 l 528 -121 l 465 -121 l 465 6 l 381 6 q 142 110 239 6 q 46 365 46 215 q 142 608 46 506 q 378 710 239 710 l 465 710 l 465 831 l 528 831 l 528 710 l 708 710 l 707 556 l 528 556 l 528 154 l 708 154 l 708 6 m 468 556 q 320 499 382 556 q 258 356 258 443 q 314 210 258 265 q 467 154 369 154 l 468 556 z "},"£":{"ha":1000,"x_min":76,"x_max":931,"o":"m 931 7 l 76 7 l 76 174 l 160 174 l 160 450 l 76 450 l 76 528 l 160 528 l 160 654 q 181 779 160 726 q 254 886 201 832 q 371 958 307 940 q 533 975 435 975 l 857 975 l 857 804 l 535 804 q 472 798 494 804 q 422 768 449 792 q 385 713 396 744 q 375 640 375 682 l 375 528 l 700 528 l 700 450 l 378 450 l 378 178 l 931 178 l 931 7 z "},"§":{"ha":715,"x_min":43,"x_max":672,"o":"m 672 363 q 646 276 672 325 q 549 182 610 211 q 600 119 581 154 q 629 8 629 68 q 543 -185 629 -114 q 351 -249 465 -249 q 131 -147 203 -249 q 81 4 81 -78 l 250 4 q 276 -69 256 -43 q 364 -106 306 -106 q 426 -83 403 -106 q 457 -10 457 -54 q 439 41 457 21 q 382 82 421 61 l 183 189 q 79 271 110 228 q 43 406 43 322 q 78 513 43 465 q 164 585 107 553 q 118 644 133 614 q 96 742 96 688 q 163 910 96 842 q 356 985 236 985 q 532 933 464 985 q 617 736 617 869 l 453 736 q 353 840 453 840 q 285 817 310 840 q 260 765 260 794 q 308 693 260 721 l 517 583 q 626 503 593 543 q 672 363 672 447 m 513 332 q 492 381 513 360 q 438 418 471 401 l 250 518 q 217 493 231 511 q 196 440 196 465 q 211 392 196 413 q 254 356 226 371 l 457 243 q 498 281 483 258 q 513 332 513 303 z "},"•":{"ha":474,"x_min":14,"x_max":460,"o":"m 460 488 q 394 328 460 393 q 238 263 329 263 q 78 327 143 263 q 14 488 14 392 q 78 646 14 582 q 238 710 142 710 q 394 646 329 710 q 460 488 460 582 z "},"ß":{"ha":814,"x_min":50,"x_max":769,"o":"m 769 767 q 756 626 769 665 q 667 538 735 567 q 740 476 714 514 q 765 383 765 439 l 765 171 q 704 49 765 99 q 542 0 643 0 q 418 18 468 0 q 342 104 342 46 l 342 296 l 493 296 q 493 211 493 253 q 532 150 497 150 q 574 176 564 150 q 583 250 583 201 q 583 279 583 269 q 575 388 583 354 q 513 450 560 450 l 347 449 l 347 604 l 471 606 q 548 626 521 606 q 575 696 575 647 q 548 785 575 749 q 475 821 521 821 l 304 821 l 306 0 l 108 0 l 108 446 l 50 446 l 50 604 l 108 604 l 108 972 l 546 972 q 705 917 640 972 q 769 767 769 863 z "},"®":{"ha":999,"x_min":-15,"x_max":1013,"o":"m 1013 486 q 858 108 1013 251 q 500 -26 714 -26 q 140 108 286 -26 q -15 486 -15 253 q 140 864 -15 719 q 500 999 286 999 q 858 864 714 999 q 1013 486 1013 721 m 901 486 q 782 800 901 676 q 500 918 668 918 q 213 798 329 918 q 97 486 97 678 q 214 174 97 296 q 500 53 331 53 q 784 174 667 53 q 901 486 901 296 m 760 253 l 622 253 l 497 444 l 367 444 l 367 253 l 250 253 l 250 739 l 606 739 q 705 692 665 739 q 744 583 744 646 q 710 495 744 531 q 625 453 676 460 l 760 253 m 604 586 q 579 639 604 621 q 511 657 554 657 l 365 657 l 365 521 l 514 521 q 575 538 546 521 q 604 586 604 554 z "},"©":{"ha":999,"x_min":-15,"x_max":1014,"o":"m 1014 488 q 858 110 1014 254 q 500 -26 713 -26 q 140 108 286 -26 q -15 488 -15 253 q 140 864 -15 721 q 500 999 286 999 q 858 865 714 999 q 1014 488 1014 722 m 903 483 q 783 797 903 674 q 500 915 669 915 q 213 795 329 915 q 97 483 97 675 q 213 169 97 290 q 500 49 328 49 q 785 170 668 49 q 903 483 903 292 m 658 243 l 443 243 q 414 245 426 243 q 379 254 401 247 q 283 337 318 272 q 249 481 249 401 q 279 624 249 560 q 368 713 310 689 q 463 729 410 729 l 657 729 l 657 636 l 454 636 q 385 588 406 636 q 365 474 365 540 q 387 375 365 415 q 456 335 408 335 l 658 333 l 658 243 z "},"™":{"ha":1204,"x_min":35,"x_max":1164,"o":"m 1164 486 l 1058 486 l 1058 860 l 921 486 l 796 486 l 654 868 l 654 486 l 553 486 l 553 972 l 715 972 l 858 588 l 994 972 l 1164 972 l 1164 486 m 507 892 l 325 892 l 325 486 l 213 486 l 213 892 l 35 892 l 35 972 l 507 972 l 507 892 z "},"´":{"ha":496,"x_min":160,"x_max":531,"o":"m 531 969 l 311 767 l 160 767 l 301 969 l 531 969 z "},"¨":{"ha":496,"x_min":10,"x_max":488,"o":"m 488 781 l 300 781 l 300 940 l 488 940 l 488 781 m 197 781 l 10 781 l 10 940 l 197 940 l 197 781 z "},"≠":{"ha":793,"x_min":22,"x_max":781,"o":"m 781 196 l 344 196 l 214 -36 l 142 4 l 247 196 l 22 196 l 22 278 l 293 278 l 403 475 l 22 475 l 22 556 l 449 556 l 579 793 l 651 753 l 543 556 l 781 556 l 781 475 l 499 475 l 388 278 l 781 278 l 781 196 z "},"Æ":{"ha":1675,"x_min":-85,"x_max":1624,"o":"m 1624 0 l 1150 0 q 969 36 1053 0 l 969 0 l 710 0 l 708 222 l 324 222 l 156 0 l -85 0 l 668 972 l 972 972 l 972 932 q 1069 964 1024 956 q 1179 972 1114 972 l 1618 972 l 1618 800 l 1213 800 q 1122 785 1158 800 q 1049 733 1085 771 q 999 660 1013 696 q 985 572 985 625 l 1624 572 l 1624 400 l 988 400 q 1000 317 988 353 q 1045 244 1013 282 q 1113 188 1078 207 q 1197 168 1149 168 l 1624 168 l 1624 0 m 713 392 l 713 733 l 453 392 l 713 392 z "},"Ø":{"ha":1154,"x_min":42,"x_max":1113,"o":"m 1113 488 q 956 78 1113 204 q 583 -26 825 -26 q 383 -6 468 -26 q 229 58 297 14 l 158 -17 l 76 -18 l 182 94 q 77 258 113 158 q 42 499 42 358 q 168 857 42 728 q 579 999 307 999 q 793 977 703 999 q 944 913 883 956 l 1022 996 l 1107 996 l 992 874 q 1085 715 1057 810 q 1113 488 1113 619 m 785 740 q 695 803 747 782 q 571 825 643 825 q 349 719 424 825 q 286 493 286 631 q 296 361 286 418 q 335 258 306 304 l 785 740 m 865 493 q 821 690 865 610 l 374 213 q 463 165 408 182 q 593 147 518 147 q 815 254 750 147 q 865 493 865 336 z "},"∞":{"ha":1031,"x_min":38,"x_max":994,"o":"m 994 383 q 936 240 994 303 q 801 178 878 178 q 720 192 765 178 q 639 228 675 206 q 574 276 603 250 q 515 333 560 289 q 449 269 479 297 q 421 246 428 251 q 328 197 378 215 q 231 179 278 179 q 95 241 153 179 q 38 385 38 303 q 97 525 38 467 q 243 583 157 583 q 468 472 344 583 l 504 442 l 517 431 l 531 442 q 638 531 608 511 q 708 567 667 551 q 792 583 749 583 q 935 525 875 583 q 994 383 994 467 m 919 375 q 881 469 919 429 q 792 508 843 508 q 615 424 721 508 l 578 393 l 565 382 l 579 367 q 697 271 658 293 q 789 249 736 249 q 881 285 843 249 q 919 375 919 322 m 468 382 l 456 393 q 333 482 379 457 q 243 507 286 507 q 150 469 189 507 q 111 378 111 432 q 151 287 111 325 q 244 249 190 249 q 440 354 331 249 l 468 382 z "},"±":{"ha":793,"x_min":14,"x_max":779,"o":"m 779 510 l 436 510 l 436 168 l 356 168 l 356 510 l 14 510 l 14 589 l 356 589 l 356 932 l 436 932 l 436 589 l 779 589 l 779 510 m 779 0 l 14 0 l 14 81 l 779 81 l 779 0 z "},"≤":{"ha":793,"x_min":40,"x_max":760,"o":"m 760 169 l 40 501 l 40 590 l 760 924 l 760 833 l 138 546 l 760 258 l 760 169 m 760 0 l 40 0 l 40 81 l 760 81 l 760 0 z "},"≥":{"ha":793,"x_min":42,"x_max":760,"o":"m 760 501 l 42 168 l 42 258 l 665 546 l 42 832 l 42 924 l 760 590 l 760 501 m 760 0 l 42 0 l 42 81 l 760 81 l 760 0 z "},"¥":{"ha":976,"x_min":-58,"x_max":1021,"o":"m 1021 972 l 714 568 l 836 568 l 836 407 l 593 407 l 593 307 l 836 307 l 836 144 l 593 144 l 593 -3 l 364 -3 l 364 144 l 111 144 l 111 307 l 364 307 l 364 407 l 111 407 l 111 568 l 244 568 l -58 972 l 224 972 l 476 585 l 733 972 l 1021 972 z "},"µ":{"ha":832,"x_min":46,"x_max":821,"o":"m 821 147 l 817 128 q 753 14 797 53 q 642 -25 708 -25 q 513 117 535 -25 q 408 14 469 51 q 283 -24 347 -24 q 217 -12 243 -24 q 142 44 192 0 l 143 4 q 146 -26 143 -19 l 182 -158 q 188 -211 188 -182 q 168 -290 188 -260 q 117 -321 149 -321 q 67 -292 88 -321 q 46 -221 46 -264 q 51 -174 46 -199 q 78 -74 57 -149 q 88 -14 88 -39 l 88 722 l 214 722 l 214 221 q 251 117 214 158 q 347 75 289 75 q 430 101 386 75 q 499 165 474 126 l 511 183 l 511 722 l 638 722 l 638 161 q 660 80 638 114 q 714 46 682 46 q 758 64 743 46 q 785 131 774 82 l 789 147 l 821 147 z "},"∂":{"ha":714,"x_min":38,"x_max":667,"o":"m 667 579 q 571 137 667 303 q 314 -29 475 -29 q 117 52 197 -29 q 38 251 38 133 q 121 485 38 389 q 322 581 204 581 q 417 564 376 581 q 526 494 458 547 l 540 483 q 556 638 556 583 q 519 852 556 757 q 429 979 483 947 q 308 1011 375 1011 q 240 1000 272 1011 q 176 974 224 994 l 150 963 l 94 1036 l 111 1042 l 143 1053 l 160 1057 l 190 1064 q 276 1076 231 1076 q 558 939 450 1076 q 667 579 667 801 m 528 432 q 453 503 486 483 q 376 522 419 522 q 225 433 286 522 q 164 211 164 344 q 198 66 164 118 q 292 14 232 14 q 483 214 419 14 q 513 320 503 274 q 528 432 522 367 z "},"Σ":{"ha":1031,"x_min":21,"x_max":1004,"o":"m 1004 168 l 1000 149 l 976 49 l 968 8 l 961 -26 l 951 -75 l 944 -133 l 942 -156 l 838 -140 l 89 -140 l 21 -144 l 525 431 l 24 1085 l 139 1076 l 892 1076 l 901 844 l 869 844 l 865 863 q 799 980 839 950 q 672 1010 760 1010 l 274 1010 l 664 494 l 242 6 l 803 6 q 899 42 861 6 q 968 168 936 79 l 1004 168 z "},"∏":{"ha":1189,"x_min":36,"x_max":1160,"o":"m 1160 -146 l 717 -146 l 717 -111 q 823 -87 790 -111 q 856 -7 856 -62 l 856 1004 l 340 1004 l 340 -14 q 479 -111 340 -111 l 479 -146 l 36 -146 l 36 -111 q 142 -87 110 -111 q 175 -14 175 -64 l 175 925 q 140 1016 175 982 q 44 1050 104 1050 l 39 1050 l 39 1085 l 1156 1085 l 1156 1050 l 1150 1050 q 1019 910 1019 1050 l 1019 -7 q 1052 -87 1019 -62 q 1160 -111 1085 -111 l 1160 -146 z "},"π":{"ha":793,"x_min":14,"x_max":765,"o":"m 765 219 q 717 47 765 115 q 594 -22 668 -22 q 492 46 529 -22 q 454 232 454 114 l 458 339 l 481 561 l 483 579 l 322 579 l 321 557 q 283 224 304 365 q 244 33 263 82 q 210 -10 235 7 q 160 -28 186 -28 q 103 -4 125 -28 q 81 56 81 19 q 92 85 81 74 l 161 178 q 181 208 174 190 q 190 244 188 225 l 232 579 l 200 579 q 108 563 135 579 q 40 486 81 547 l 14 486 q 52 588 38 558 q 97 651 67 617 q 149 688 117 672 q 208 703 182 703 l 754 703 l 754 579 l 574 579 l 572 561 q 561 429 567 500 q 556 274 556 358 l 556 263 q 646 111 556 111 q 706 138 685 111 q 733 219 728 164 l 765 219 z "},"∫":{"ha":396,"x_min":3,"x_max":421,"o":"m 421 1242 q 399 1194 421 1213 q 340 1176 376 1176 q 321 1182 332 1176 l 290 1206 q 281 1210 283 1208 q 276 1213 278 1211 q 247 1165 247 1213 l 249 1135 l 269 875 q 275 774 274 825 q 276 551 276 724 q 269 242 276 332 q 239 21 263 151 q 196 -102 224 -51 q 85 -153 168 -153 q 27 -126 51 -153 q 3 -62 3 -99 q 35 -15 3 -33 q 69 -3 54 -3 q 94 -12 79 -3 q 136 -47 108 -22 q 183 82 183 -43 l 172 444 l 174 840 q 212 1214 174 1107 q 326 1321 250 1321 q 394 1299 368 1321 q 421 1242 421 1276 z "},"ª":{"ha":506,"x_min":25,"x_max":474,"o":"m 464 503 l 151 503 q 62 541 99 503 q 25 639 25 579 q 58 740 25 700 q 143 781 92 781 l 344 781 l 344 806 q 331 844 344 826 q 305 865 318 861 q 269 869 292 869 l 54 869 l 54 972 l 239 972 q 271 972 260 972 q 357 965 324 972 q 417 927 390 957 q 454 859 444 897 q 464 771 464 821 l 464 503 m 474 465 l 472 365 l 28 365 l 28 465 l 474 465 m 344 599 l 344 692 l 197 692 q 162 678 176 692 q 147 643 147 665 q 161 611 147 624 q 194 599 175 599 l 344 599 z "},"º":{"ha":549,"x_min":25,"x_max":524,"o":"m 524 740 q 453 553 524 617 q 274 493 388 493 q 97 547 160 493 q 25 742 25 610 q 103 915 25 853 q 276 972 174 972 q 456 912 389 972 q 524 740 524 851 m 515 465 l 514 365 l 28 365 l 28 465 l 515 465 m 394 740 q 361 836 394 799 q 272 874 328 874 q 186 835 219 874 q 153 736 153 796 q 188 626 153 667 q 276 586 222 586 q 366 627 338 586 q 394 740 394 668 z "},"Ω":{"ha":1110,"x_min":49,"x_max":1063,"o":"m 1063 0 l 638 0 l 660 219 q 724 250 700 236 q 768 286 747 264 q 864 579 864 382 q 783 851 864 756 q 554 947 703 947 q 329 850 411 947 q 247 581 247 753 q 274 410 247 489 q 347 283 300 331 q 390 249 369 261 q 454 219 410 236 l 476 0 l 49 0 l 49 233 l 74 233 q 94 176 85 192 q 117 155 103 160 q 166 147 131 150 q 267 144 201 144 l 394 147 l 392 186 q 283 227 324 207 q 210 276 243 247 q 113 411 147 333 q 78 575 78 489 q 213 876 78 758 q 557 994 347 994 q 900 876 765 994 q 1035 576 1035 758 q 985 379 1035 472 q 853 240 935 286 q 797 212 818 221 q 722 186 776 203 l 719 147 q 783 146 740 147 q 850 144 826 144 q 996 154 971 144 q 1018 176 1008 163 q 1036 217 1028 189 l 1040 233 l 1063 233 l 1063 0 z "},"æ":{"ha":1267,"x_min":42,"x_max":1215,"o":"m 1215 -4 l 772 -1 l 253 -1 q 103 58 165 -1 q 42 207 42 117 q 98 363 42 301 q 239 425 154 425 l 575 425 l 575 464 q 569 495 575 482 q 549 526 563 508 q 508 555 529 549 q 450 561 488 561 l 90 561 l 90 719 l 399 719 l 458 719 q 610 702 560 719 q 696 650 660 685 l 704 642 q 892 719 793 719 l 1214 719 l 1214 571 l 978 571 q 902 563 933 571 q 844 533 871 556 q 796 421 796 492 l 1213 421 l 1213 271 l 797 271 q 805 215 797 238 q 836 169 813 192 q 892 138 860 146 q 972 131 925 131 l 1215 131 l 1215 -4 m 574 146 l 574 288 l 329 288 q 270 267 294 288 q 246 214 246 247 q 269 165 246 185 q 324 146 293 146 l 574 146 z "},"ø":{"ha":915,"x_min":42,"x_max":874,"o":"m 874 363 q 763 72 874 172 q 472 -22 658 -22 q 331 -8 396 -22 q 208 39 265 7 l 117 -67 l 43 -68 l 163 71 q 74 192 106 118 q 42 365 42 265 q 172 632 42 535 q 460 719 289 719 q 683 675 588 719 l 793 803 l 869 803 l 733 646 q 837 530 800 603 q 874 363 874 457 m 567 539 q 454 569 518 569 q 312 509 368 569 q 256 357 256 449 q 290 218 256 276 l 567 539 m 658 364 q 610 503 658 447 l 325 174 q 460 121 382 121 q 613 189 563 121 q 658 364 658 251 z "},"¿":{"ha":1065,"x_min":36,"x_max":993,"o":"m 964 560 l 740 560 l 740 719 l 964 719 l 964 560 m 993 -253 l 317 -253 q 117 -166 199 -253 q 36 40 36 -79 q 133 242 36 168 q 367 310 224 310 l 588 310 q 653 320 626 310 q 704 358 679 331 q 730 403 722 381 q 738 458 738 426 l 738 483 l 967 483 l 967 431 q 951 318 967 365 q 893 226 935 271 q 778 158 844 175 q 635 147 732 147 l 418 147 q 338 117 369 147 q 306 38 306 86 q 344 -56 306 -17 q 438 -94 383 -94 l 993 -94 l 993 -253 z "},"¡":{"ha":347,"x_min":74,"x_max":272,"o":"m 272 546 l 74 546 l 74 719 l 272 719 l 272 546 m 269 -260 l 74 -260 l 74 457 l 269 457 l 269 -260 z "},"¬":{"ha":1031,"x_min":22,"x_max":982,"o":"m 982 0 l 901 0 l 901 336 l 22 336 l 22 417 l 982 417 l 982 0 z "},"√":{"ha":793,"x_min":13,"x_max":744,"o":"m 744 1315 l 529 -58 l 176 669 l 38 601 l 13 650 l 226 754 l 510 175 l 692 1324 l 744 1315 z "},"ƒ":{"ha":722,"x_min":1,"x_max":715,"o":"m 715 894 q 694 849 715 868 q 643 829 674 829 q 607 851 621 829 q 590 882 590 872 l 592 889 l 607 924 l 608 932 q 579 953 608 953 q 513 913 543 953 q 474 811 482 872 l 446 621 l 443 603 l 628 603 l 614 553 l 438 553 l 393 194 l 378 128 l 342 -33 q 258 -208 321 -125 q 121 -278 204 -278 q 35 -250 68 -278 q 1 -179 1 -222 q 21 -128 1 -149 q 71 -107 40 -107 q 112 -122 96 -107 q 128 -158 128 -136 q 117 -200 128 -167 l 111 -215 l 110 -225 l 110 -232 l 118 -239 l 132 -239 q 200 -201 175 -239 q 243 -72 225 -162 l 260 13 l 265 63 l 315 553 l 146 553 l 165 603 l 326 603 q 422 887 349 783 q 603 990 494 990 q 682 963 649 990 q 715 894 715 935 z "},"≈":{"ha":793,"x_min":19,"x_max":761,"o":"m 761 535 q 554 418 689 418 l 529 422 l 281 492 q 254 497 261 496 q 228 499 246 499 q 150 479 182 499 q 83 411 118 460 l 21 453 q 120 540 71 514 q 233 567 169 567 l 279 563 l 521 496 l 556 490 q 708 569 642 490 l 761 535 m 761 317 q 673 232 728 264 q 557 200 618 200 q 528 204 540 200 l 281 274 q 225 281 249 281 q 83 194 147 281 l 19 233 q 233 349 108 349 q 282 342 263 349 l 521 278 l 554 272 q 707 353 640 272 l 761 317 z "},"∆":{"ha":883,"x_min":8,"x_max":878,"o":"m 878 0 l 8 0 l 471 996 l 878 0 m 697 72 l 419 744 l 106 72 l 697 72 z "},"…":{"ha":1042,"x_min":74,"x_max":964,"o":"m 964 0 l 768 0 l 768 176 l 964 176 l 964 0 m 617 0 l 421 0 l 421 176 l 617 176 l 617 0 m 269 0 l 74 0 l 74 176 l 269 176 l 269 0 z "},"À":{"ha":974,"x_min":-39,"x_max":1015,"o":"m 1015 0 l 772 0 l 690 222 l 289 222 l 201 0 l -39 0 l 360 972 l 597 972 l 1015 0 m 615 392 l 483 733 l 356 392 l 615 392 m 647 1004 l 497 1004 l 279 1207 l 508 1207 l 647 1004 z "},"Ã":{"ha":974,"x_min":-39,"x_max":1015,"o":"m 1015 0 l 772 0 l 690 222 l 289 222 l 201 0 l -39 0 l 360 972 l 597 972 l 1015 0 m 615 392 l 483 733 l 356 392 l 615 392 m 760 1203 q 703 1056 746 1107 q 597 1004 660 1004 q 496 1024 554 1004 q 379 1067 438 1044 q 335 1049 354 1067 q 310 1001 315 1031 l 213 1001 q 226 1060 219 1031 q 257 1131 239 1103 q 313 1183 281 1164 q 393 1203 344 1203 q 491 1172 414 1203 q 593 1140 568 1140 q 644 1161 625 1140 q 664 1203 657 1175 l 760 1203 z "},"Õ":{"ha":1154,"x_min":42,"x_max":1113,"o":"m 1113 488 q 956 82 1113 204 q 583 -17 828 -17 q 183 97 313 -17 q 42 499 42 222 q 168 851 42 725 q 579 989 306 989 q 1004 857 881 989 q 1113 488 1113 740 m 865 493 q 797 721 865 636 q 571 815 721 815 q 349 714 424 815 q 286 493 286 629 q 336 261 286 336 q 593 157 406 157 q 815 258 751 157 q 865 493 865 338 m 839 1203 q 782 1056 825 1107 q 676 1004 739 1004 q 575 1024 633 1004 q 458 1067 517 1044 q 414 1049 433 1067 q 389 1001 394 1031 l 292 1001 q 306 1060 299 1031 q 336 1131 318 1103 q 392 1183 360 1164 q 472 1203 424 1203 q 570 1172 493 1203 q 672 1140 647 1140 q 724 1161 704 1140 q 743 1203 736 1175 l 839 1203 z "},"Œ":{"ha":1819,"x_min":42,"x_max":1778,"o":"m 1778 0 l 1304 0 q 1093 50 1194 0 q 997 121 1039 78 q 815 13 928 46 q 583 -17 718 -17 q 183 97 313 -17 q 42 499 42 222 q 168 851 42 725 q 579 989 306 989 q 841 955 736 989 q 1007 853 946 921 q 1093 917 1047 893 q 1208 960 1153 947 q 1333 972 1263 972 l 1772 972 l 1772 800 l 1367 800 q 1276 785 1313 800 q 1203 733 1239 771 q 1153 660 1167 696 q 1139 572 1139 625 l 1778 572 l 1778 400 l 1142 400 q 1154 317 1142 353 q 1199 244 1167 282 q 1267 188 1232 207 q 1351 168 1303 168 l 1778 168 l 1778 0 m 865 493 q 797 721 865 636 q 571 815 721 815 q 349 714 424 815 q 286 493 286 629 q 336 261 286 336 q 593 157 406 157 q 815 258 751 157 q 865 493 865 338 z "},"œ":{"ha":1354,"x_min":42,"x_max":1304,"o":"m 1304 -4 l 965 -4 q 862 17 911 -4 q 771 79 813 39 q 644 3 719 28 q 472 -22 568 -22 q 171 64 282 -22 q 42 365 42 164 q 172 632 42 535 q 460 719 289 719 q 768 618 658 719 q 981 719 863 719 l 1303 719 l 1303 571 l 1067 571 q 991 563 1022 571 q 933 533 960 556 q 885 421 885 492 l 1301 421 l 1301 271 l 886 271 q 894 215 886 238 q 925 169 901 192 q 981 138 949 146 q 1061 131 1014 131 l 1304 131 l 1304 -4 m 658 364 q 603 510 658 451 q 454 569 549 569 q 312 509 368 569 q 256 357 256 449 q 313 186 256 251 q 460 121 371 121 q 613 189 563 121 q 658 364 658 251 z "},"–":{"ha":694,"x_min":0,"x_max":694,"o":"m 694 365 l 0 365 l 0 556 l 694 556 l 694 365 z "},"—":{"ha":1389,"x_min":0,"x_max":1389,"o":"m 1389 365 l 0 365 l 0 556 l 1389 556 l 1389 365 z "},"“":{"ha":701,"x_min":42,"x_max":657,"o":"m 325 811 l 179 811 l 42 975 l 263 975 l 325 811 m 657 806 l 513 806 l 369 975 l 590 975 l 657 806 z "},"”":{"ha":740,"x_min":57,"x_max":672,"o":"m 672 975 l 535 811 l 390 811 l 450 975 l 672 975 m 346 975 l 203 806 l 57 806 l 125 975 l 346 975 z "},"‘":{"ha":347,"x_min":26,"x_max":310,"o":"m 310 808 l 164 808 l 26 972 l 247 972 l 310 808 z "},"’":{"ha":347,"x_min":38,"x_max":319,"o":"m 319 969 l 182 804 l 38 804 l 99 969 l 319 969 z "},"÷":{"ha":793,"x_min":14,"x_max":774,"o":"m 469 578 q 446 521 469 544 q 388 497 422 497 q 329 521 353 497 q 306 578 306 544 q 326 632 306 608 q 378 658 347 656 l 386 658 q 446 636 422 658 q 469 578 469 614 m 774 339 l 14 339 l 14 421 l 774 421 l 774 339 m 469 183 q 445 127 469 150 q 388 104 421 104 q 329 126 353 104 q 306 185 306 149 q 326 239 306 217 q 383 264 347 261 l 388 265 q 445 241 421 265 q 469 183 469 217 z "},"◊":{"ha":714,"x_min":26,"x_max":674,"o":"m 674 544 l 394 0 l 306 0 l 75 449 l 26 544 l 304 1076 l 394 1076 l 617 653 l 674 544 m 585 544 l 350 996 l 125 568 l 114 544 l 350 81 l 551 478 l 585 544 z "},"ÿ":{"ha":832,"x_min":69,"x_max":758,"o":"m 758 719 l 757 -31 q 738 -116 757 -78 q 686 -183 718 -154 q 586 -240 638 -225 q 463 -256 535 -256 l 85 -256 l 85 -106 l 478 -106 q 528 -87 504 -106 q 560 -29 560 -62 l 560 -1 l 338 -1 q 229 13 274 -1 q 143 69 185 28 q 69 249 69 142 l 69 719 l 272 719 l 271 258 q 274 217 271 231 q 294 186 278 203 q 331 163 310 169 q 382 157 351 157 l 558 157 l 558 719 l 758 719 m 650 781 l 463 781 l 463 940 l 650 940 l 650 781 m 360 781 l 172 781 l 172 940 l 360 940 l 360 781 z "},"Ÿ":{"ha":976,"x_min":-58,"x_max":1021,"o":"m 1021 972 l 593 410 l 593 -3 l 364 -3 l 364 410 l -58 972 l 224 972 l 476 585 l 733 972 l 1021 972 m 713 1022 l 525 1022 l 525 1182 l 713 1182 l 713 1022 m 422 1022 l 235 1022 l 235 1182 l 422 1182 l 422 1022 z "},"∕":{"ha":813,"x_min":76,"x_max":744,"o":"m 744 994 l 158 -17 l 76 -18 l 664 994 l 744 994 z "},"¤":{"ha":792,"x_min":47,"x_max":760,"o":"m 760 658 l 681 581 q 734 485 715 542 q 753 368 753 428 q 735 253 753 306 q 681 153 718 200 l 758 72 l 694 10 l 614 92 q 403 13 528 13 q 288 33 343 13 q 192 92 233 53 l 113 10 l 47 72 l 125 153 q 54 368 54 240 q 72 485 54 431 q 125 581 89 540 l 47 658 l 115 726 l 197 646 q 292 700 238 681 q 403 719 346 719 q 608 646 526 719 l 690 726 l 760 658 m 649 368 q 576 546 649 471 q 403 621 504 621 q 231 546 303 621 q 158 368 158 471 q 230 190 158 265 q 403 114 301 114 q 577 188 506 114 q 649 368 649 263 z "},"·":{"ha":347,"x_min":74,"x_max":269,"o":"m 269 431 l 74 431 l 74 607 l 269 607 l 269 431 z "},"Â":{"ha":974,"x_min":-39,"x_max":1015,"o":"m 1015 0 l 772 0 l 690 222 l 289 222 l 201 0 l -39 0 l 360 972 l 597 972 l 1015 0 m 615 392 l 483 733 l 356 392 l 615 392 m 744 1008 l 576 1008 l 482 1122 l 388 1008 l 219 1008 l 389 1211 l 575 1211 l 744 1008 z "},"Ê":{"ha":1001,"x_min":43,"x_max":953,"o":"m 953 0 l 479 0 q 268 50 369 0 q 101 222 158 104 q 43 482 43 340 q 99 736 43 622 q 268 917 160 860 q 383 960 328 947 q 508 972 438 972 l 947 972 l 947 800 l 542 800 q 451 785 488 800 q 378 733 414 771 q 328 660 342 696 q 314 572 314 625 l 953 572 l 953 400 l 317 400 q 329 317 317 353 q 374 244 342 282 q 442 188 407 207 q 526 168 478 168 l 953 168 l 953 0 m 836 1008 l 668 1008 l 574 1122 l 479 1008 l 311 1008 l 481 1211 l 667 1211 l 836 1008 z "},"Á":{"ha":974,"x_min":-39,"x_max":1015,"o":"m 1015 0 l 772 0 l 690 222 l 289 222 l 201 0 l -39 0 l 360 972 l 597 972 l 1015 0 m 615 392 l 483 733 l 356 392 l 615 392 m 676 1215 l 457 1013 l 306 1013 l 447 1215 l 676 1215 z "},"Ë":{"ha":1001,"x_min":43,"x_max":953,"o":"m 953 0 l 479 0 q 268 50 369 0 q 101 222 158 104 q 43 482 43 340 q 99 736 43 622 q 268 917 160 860 q 383 960 328 947 q 508 972 438 972 l 947 972 l 947 800 l 542 800 q 451 785 488 800 q 378 733 414 771 q 328 660 342 696 q 314 572 314 625 l 953 572 l 953 400 l 317 400 q 329 317 317 353 q 374 244 342 282 q 442 188 407 207 q 526 168 478 168 l 953 168 l 953 0 m 783 1022 l 596 1022 l 596 1182 l 783 1182 l 783 1022 m 493 1022 l 306 1022 l 306 1182 l 493 1182 l 493 1022 z "},"È":{"ha":1001,"x_min":43,"x_max":953,"o":"m 953 0 l 479 0 q 268 50 369 0 q 101 222 158 104 q 43 482 43 340 q 99 736 43 622 q 268 917 160 860 q 383 960 328 947 q 508 972 438 972 l 947 972 l 947 800 l 542 800 q 451 785 488 800 q 378 733 414 771 q 328 660 342 696 q 314 572 314 625 l 953 572 l 953 400 l 317 400 q 329 317 317 353 q 374 244 342 282 q 442 188 407 207 q 526 168 478 168 l 953 168 l 953 0 m 726 1004 l 576 1004 l 358 1207 l 588 1207 l 726 1004 z "},"Í":{"ha":400,"x_min":18,"x_max":389,"o":"m 329 0 l 69 0 l 69 972 l 329 972 l 329 0 m 389 1215 l 169 1013 l 18 1013 l 160 1215 l 389 1215 z "},"Î":{"ha":400,"x_min":-68,"x_max":457,"o":"m 329 0 l 69 0 l 69 972 l 329 972 l 329 0 m 457 1008 l 289 1008 l 194 1122 l 100 1008 l -68 1008 l 101 1211 l 288 1211 l 457 1008 z "},"Ï":{"ha":400,"x_min":-36,"x_max":442,"o":"m 329 0 l 69 0 l 69 972 l 329 972 l 329 0 m 442 1022 l 254 1022 l 254 1182 l 442 1182 l 442 1022 m 151 1022 l -36 1022 l -36 1182 l 151 1182 l 151 1022 z "},"Ì":{"ha":400,"x_min":17,"x_max":385,"o":"m 329 0 l 69 0 l 69 972 l 329 972 l 329 0 m 385 1004 l 235 1004 l 17 1207 l 246 1207 l 385 1004 z "},"Ó":{"ha":1154,"x_min":42,"x_max":1113,"o":"m 1113 488 q 956 82 1113 204 q 583 -17 828 -17 q 183 97 313 -17 q 42 499 42 222 q 168 851 42 725 q 579 989 306 989 q 1004 857 881 989 q 1113 488 1113 740 m 865 493 q 797 721 865 636 q 571 815 721 815 q 349 714 424 815 q 286 493 286 629 q 336 261 286 336 q 593 157 406 157 q 815 258 751 157 q 865 493 865 338 m 743 1215 l 524 1013 l 372 1013 l 514 1215 l 743 1215 z "},"Ô":{"ha":1154,"x_min":42,"x_max":1113,"o":"m 1113 488 q 956 82 1113 204 q 583 -17 828 -17 q 183 97 313 -17 q 42 499 42 222 q 168 851 42 725 q 579 989 306 989 q 1004 857 881 989 q 1113 488 1113 740 m 865 493 q 797 721 865 636 q 571 815 721 815 q 349 714 424 815 q 286 493 286 629 q 336 261 286 336 q 593 157 406 157 q 815 258 751 157 q 865 493 865 338 m 840 1008 l 672 1008 l 578 1122 l 483 1008 l 315 1008 l 485 1211 l 671 1211 l 840 1008 z "},"":{"ha":1142,"x_min":124,"x_max":1006,"o":"m 771 983 q 707 819 771 890 q 557 749 643 749 q 614 919 557 854 q 771 999 671 985 l 771 983 m 1006 244 q 887 35 951 110 q 761 -39 822 -39 q 703 -26 732 -39 l 644 -1 q 599 4 631 4 q 522 -3 547 4 l 461 -29 q 406 -40 428 -40 q 246 78 325 -40 q 156 258 188 164 q 124 442 124 353 q 199 672 124 583 q 394 760 275 760 q 507 733 443 760 q 575 717 553 717 q 638 731 600 717 q 717 757 694 751 q 769 763 739 763 q 978 660 903 763 q 889 565 915 611 q 863 458 863 519 q 900 329 863 386 q 1006 244 938 272 z "},"Ò":{"ha":1154,"x_min":42,"x_max":1113,"o":"m 1113 488 q 956 82 1113 204 q 583 -17 828 -17 q 183 97 313 -17 q 42 499 42 222 q 168 851 42 725 q 579 989 306 989 q 1004 857 881 989 q 1113 488 1113 740 m 865 493 q 797 721 865 636 q 571 815 721 815 q 349 714 424 815 q 286 493 286 629 q 336 261 286 336 q 593 157 406 157 q 815 258 751 157 q 865 493 865 338 m 743 1004 l 593 1004 l 375 1207 l 604 1207 l 743 1004 z "},"Ú":{"ha":1113,"x_min":69,"x_max":1040,"o":"m 1040 329 q 888 58 1040 138 q 561 0 774 0 q 229 68 354 0 q 69 339 69 154 l 69 972 l 315 972 l 315 369 q 397 204 315 256 q 546 167 457 167 q 754 226 697 167 q 803 378 803 278 l 803 972 l 1040 972 l 1040 329 m 743 1215 l 524 1013 l 372 1013 l 514 1215 l 743 1215 z "},"Û":{"ha":1113,"x_min":69,"x_max":1040,"o":"m 1040 329 q 888 58 1040 138 q 561 0 774 0 q 229 68 354 0 q 69 339 69 154 l 69 972 l 315 972 l 315 369 q 397 204 315 256 q 546 167 457 167 q 754 226 697 167 q 803 378 803 278 l 803 972 l 1040 972 l 1040 329 m 819 1008 l 651 1008 l 557 1122 l 463 1008 l 294 1008 l 464 1211 l 650 1211 l 819 1008 z "},"Ù":{"ha":1113,"x_min":69,"x_max":1040,"o":"m 1040 329 q 888 58 1040 138 q 561 0 774 0 q 229 68 354 0 q 69 339 69 154 l 69 972 l 315 972 l 315 369 q 397 204 315 256 q 546 167 457 167 q 754 226 697 167 q 803 378 803 278 l 803 972 l 1040 972 l 1040 329 m 739 1004 l 589 1004 l 371 1207 l 600 1207 l 739 1004 z "},"ı":{"ha":333,"x_min":69,"x_max":264,"o":"m 264 0 l 69 0 l 69 719 l 264 719 l 264 0 z "},"ˆ":{"ha":496,"x_min":-15,"x_max":510,"o":"m 510 767 l 342 767 l 247 881 l 153 767 l -15 767 l 154 969 l 340 969 l 510 767 z "},"˜":{"ha":496,"x_min":-26,"x_max":521,"o":"m 521 972 q 464 825 507 876 q 358 774 421 774 q 257 794 315 774 q 140 836 199 814 q 96 818 115 836 q 71 771 76 800 l -26 771 q -12 829 -19 800 q 18 900 0 872 q 74 953 42 933 q 154 972 106 972 q 252 941 175 972 q 354 910 329 910 q 406 931 386 910 q 425 972 418 944 l 521 972 z "},"¯":{"ha":496,"x_min":-10,"x_max":506,"o":"m 506 767 l -10 767 l -10 869 l 506 869 l 506 767 z "},"˘":{"ha":496,"x_min":-3,"x_max":500,"o":"m 500 969 q 449 844 492 893 q 233 767 379 767 q 40 847 103 767 q -3 969 -3 903 l 94 969 q 125 908 104 929 q 243 872 163 872 q 342 886 310 872 q 401 969 392 908 l 500 969 z "},"˙":{"ha":496,"x_min":154,"x_max":342,"o":"m 342 781 l 154 781 l 154 940 l 342 940 l 342 781 z "},"˚":{"ha":496,"x_min":89,"x_max":410,"o":"m 410 861 q 360 757 410 797 q 249 717 311 717 q 140 756 188 717 q 89 861 89 799 q 139 965 89 924 q 249 1007 189 1007 q 360 966 310 1007 q 410 861 410 925 m 326 861 q 303 912 326 890 q 249 933 281 933 q 193 913 215 933 q 171 861 171 892 q 194 809 171 831 q 249 788 217 788 q 304 808 282 788 q 326 861 326 829 z "},"¸":{"ha":496,"x_min":10,"x_max":365,"o":"m 365 -181 q 314 -279 365 -240 q 181 -318 263 -318 q 105 -311 139 -318 q 10 -283 71 -304 l 42 -217 q 106 -233 78 -226 q 156 -239 135 -239 q 204 -224 182 -239 q 226 -185 226 -210 q 210 -147 226 -160 q 168 -135 193 -135 q 108 -144 143 -135 l 78 -117 l 158 0 l 247 0 l 190 -78 q 213 -72 201 -75 q 235 -71 219 -71 q 315 -92 281 -71 q 365 -181 365 -121 z "},"ʺ":{"ha":496,"x_min":14,"x_max":724,"o":"m 724 969 l 506 767 l 354 767 l 494 969 l 724 969 m 383 969 l 164 767 l 14 767 l 153 969 l 383 969 z "},"˛":{"ha":496,"x_min":106,"x_max":453,"o":"m 453 -285 q 365 -311 401 -304 q 290 -318 329 -318 q 158 -281 210 -318 q 106 -189 106 -243 q 149 -75 106 -124 q 267 0 192 -26 l 393 0 l 393 -6 q 285 -89 325 -39 q 246 -174 246 -139 q 267 -223 246 -206 q 315 -240 289 -240 q 366 -233 336 -240 q 426 -217 396 -226 l 453 -285 z "},"ˇ":{"ha":496,"x_min":-15,"x_max":510,"o":"m 510 969 l 340 767 l 154 767 l -15 969 l 153 969 l 247 856 l 342 969 l 510 969 z "},"Š":{"ha":1133,"x_min":42,"x_max":1093,"o":"m 1093 301 q 1008 86 1093 174 q 793 -1 924 -1 l 106 0 l 106 175 l 672 175 q 768 201 729 175 q 813 285 813 232 q 638 408 813 408 l 351 408 q 135 485 228 408 q 42 679 42 561 q 133 891 42 810 q 372 972 224 972 l 1029 972 l 1029 806 l 450 806 q 372 773 411 806 q 332 696 332 740 q 370 612 332 646 q 463 578 408 578 l 778 578 q 1009 502 925 578 q 1093 301 1093 426 m 811 1008 l 643 1008 l 549 1122 l 454 1008 l 286 1008 l 456 1211 l 642 1211 l 811 1008 z "},"š":{"ha":781,"x_min":39,"x_max":739,"o":"m 739 219 q 680 63 739 128 q 531 -3 621 -3 l 54 -3 l 54 128 l 446 128 q 516 149 488 128 q 544 208 544 169 q 422 299 544 299 l 222 299 q 99 360 158 299 q 39 492 39 421 q 83 653 39 592 q 235 722 135 722 l 693 722 l 693 586 l 285 586 q 244 563 261 586 q 226 511 226 540 q 249 456 226 479 q 304 433 272 433 l 519 433 q 680 373 621 433 q 739 219 739 313 m 624 767 l 456 767 l 361 881 l 267 767 l 99 767 l 268 969 l 454 969 l 624 767 z "}}}
